<svg xmlns="http://www.w3.org/2000/svg" id="Layer_1" viewBox="0 0 767 1240">
  <defs>
    <style>
      .cls-1{fill:#222}
    </style>
  </defs>
  <path fill="#121212" d="M0 0h767v1240H0z"/>
  <path d="M747.15 29.62c-.11-.02-.21-.04-.33-.04H20.17c-.41 0-.79.18-1.07.48-.02.02-.05.04-.07.07-.04.04-.07.09-.1.14-.03.04-.07.08-.09.13-.01.02-.02.05-.04.07-.15.28-.24.61-.24.96v1177.14c0 1.02.72 1.85 1.62 1.85h726.65c.89 0 1.62-.83 1.62-1.85V31.43c0-.89-.55-1.64-1.29-1.81Zm-1.94 1177.1H21.79V33.28h723.42v1173.44ZM35.97 539.17V119.9c0-1.02.72-1.85 1.62-1.85h58.2V51.38c0-1.02.72-1.85 1.62-1.85h260.6c.89 0 1.62.83 1.62 1.85s-.72 1.85-1.62 1.85H99.02v66.67c0 1.02-.72 1.85-1.62 1.85H39.2v417.43c0 1.02-.72 1.85-1.62 1.85s-1.62-.83-1.62-1.85ZM291.26 68.18c0 1.02-.72 1.85-1.62 1.85H113.69v66.67c0 1.02-.72 1.85-1.62 1.85H53.86v322.58c0 1.02-.72 1.85-1.62 1.85s-1.62-.83-1.62-1.85V136.7c0-1.02.72-1.85 1.62-1.85h58.21V68.18c0-1.02.72-1.85 1.62-1.85h177.57c.89 0 1.62.83 1.62 1.85ZM37.59 104.94h14.66c.89 0 1.62-.83 1.62-1.85V70.02h28.87c.89 0 1.62-.83 1.62-1.85v-16.8c0-1.02-.72-1.85-1.62-1.85H37.59c-.89 0-1.62.83-1.62 1.85v51.72c0 1.02.72 1.85 1.62 1.85Zm1.62-51.72h41.92v13.1H52.26c-.89 0-1.62.83-1.62 1.85v33.07H39.21V53.22ZM67.5 83.78c-.89 0-1.62.83-1.62 1.85v16.8c0 1.02.72 1.85 1.62 1.85h14.67c.89 0 1.62-.83 1.62-1.85v-16.8c0-1.02-.72-1.85-1.62-1.85H67.5Zm13.05 16.8H69.11v-13.1h11.44v13.1Zm603.71-30.56h28.87v33.07c0 1.02.72 1.85 1.62 1.85h14.67c.89 0 1.62-.83 1.62-1.85V51.37c0-1.02-.73-1.85-1.62-1.85h-45.15c-.89 0-1.62.83-1.62 1.85v16.8c0 1.02.72 1.85 1.62 1.85Zm1.62-16.8h41.92v48.02h-11.44V68.17c0-1.02-.72-1.85-1.62-1.85h-28.87v-13.1Zm-278.5-1.85c0-1.02.72-1.85 1.62-1.85h260.6c.89 0 1.62.83 1.62 1.85v66.67h58.2c.89 0 1.62.83 1.62 1.85v419.27c0 1.02-.73 1.85-1.62 1.85s-1.62-.83-1.62-1.85V121.75h-58.2c-.89 0-1.62-.83-1.62-1.85V53.23H408.99c-.89 0-1.62-.83-1.62-1.85Zm308.99 409.75c0 1.02-.72 1.85-1.62 1.85s-1.62-.83-1.62-1.85V138.55h-58.2c-.89 0-1.62-.83-1.62-1.85V70.03H477.35c-.89 0-1.62-.83-1.62-1.85s.73-1.85 1.62-1.85h177.57c.89 0 1.62.83 1.62 1.85v66.67h58.2c.89 0 1.62.83 1.62 1.85v324.43ZM684.84 83.78c-.89 0-1.62.83-1.62 1.85v16.8c0 1.02.72 1.85 1.62 1.85h14.67c.89 0 1.62-.83 1.62-1.85v-16.8c0-1.02-.73-1.85-1.62-1.85h-14.67Zm13.05 16.8h-11.44v-13.1h11.44v13.1ZM35.97 1120.1V700.83c0-1.02.72-1.85 1.62-1.85s1.62.83 1.62 1.85v417.43h58.2c.89 0 1.62.83 1.62 1.85v66.67h258.98c.89 0 1.62.83 1.62 1.85s-.72 1.85-1.62 1.85H97.41c-.89 0-1.62-.83-1.62-1.85v-66.67h-58.2c-.89 0-1.62-.83-1.62-1.85Zm74.49 51.72v-66.67H52.25c-.89 0-1.62-.83-1.62-1.85V778.87c0-1.02.72-1.85 1.62-1.85s1.62.83 1.62 1.85v322.59h58.21c.89 0 1.62.83 1.62 1.85v66.67h175.96c.89 0 1.62.83 1.62 1.85s-.72 1.85-1.62 1.85H112.07c-.89 0-1.62-.83-1.62-1.85Zm-72.87 18.65h45.15c.89 0 1.62-.83 1.62-1.85v-16.8c0-1.02-.72-1.85-1.62-1.85H53.87v-33.07c0-1.02-.72-1.85-1.62-1.85H37.59c-.89 0-1.62.83-1.62 1.85v51.72c0 1.02.72 1.85 1.62 1.85Zm1.62-51.72h11.43v33.07c0 1.02.72 1.85 1.62 1.85h28.87v13.1H39.21v-48.02Zm28.29-3.04c-.89 0-1.62.83-1.62 1.85v16.8c0 1.02.72 1.85 1.62 1.85h14.67c.89 0 1.62-.83 1.62-1.85v-16.8c0-1.02-.72-1.85-1.62-1.85H67.5Zm13.05 16.8H69.11v-13.1h11.44v13.1Zm635.82-373.64v324.43c0 1.02-.72 1.85-1.62 1.85h-58.2v66.67c0 1.02-.72 1.85-1.62 1.85H477.36c-.89 0-1.62-.83-1.62-1.85s.73-1.85 1.62-1.85h175.96v-66.67c0-1.02.72-1.85 1.62-1.85h58.2V778.86c0-1.02.72-1.85 1.62-1.85s1.62.83 1.62 1.85Zm-308.99 409.75c0-1.02.72-1.85 1.62-1.85h258.99v-66.67c0-1.02.72-1.85 1.62-1.85h58.2V700.82c0-1.02.72-1.85 1.62-1.85s1.62.83 1.62 1.85v419.27c0 1.02-.73 1.85-1.62 1.85h-58.2v66.67c0 1.02-.72 1.85-1.62 1.85h-260.6c-.89 0-1.62-.83-1.62-1.85Zm322.04-53.57h-14.67c-.89 0-1.62.83-1.62 1.85v33.07h-28.87c-.89 0-1.62.83-1.62 1.85v16.8c0 1.02.72 1.85 1.62 1.85h45.15c.89 0 1.62-.83 1.62-1.85v-51.72c0-1.02-.73-1.85-1.62-1.85Zm-1.62 51.72h-41.92v-13.1h28.87c.89 0 1.62-.83 1.62-1.85v-33.07h11.44v48.02Zm-28.3-30.56c.89 0 1.62-.83 1.62-1.85v-16.8c0-1.02-.73-1.85-1.62-1.85h-14.67c-.89 0-1.62.83-1.62 1.85v16.8c0 1.02.72 1.85 1.62 1.85h14.67Zm-13.05-16.8h11.44v13.1h-11.44v-13.1Z" class="cls-1"/>
  <path d="M467.75 181.89c.4.58 1.05.9 1.71.9.41 0 .82-.12 1.18-.37.94-.65 1.18-1.95.52-2.89-2.37-3.42-4.98-6.73-7.75-9.84-.76-.86-2.08-.94-2.93-.17-.86.76-.94 2.08-.17 2.93 2.66 2.99 5.16 6.17 7.44 9.45Zm-25.44-25.37c3.29 2.27 6.48 4.76 9.48 7.41.39.35.89.52 1.38.52.57 0 1.15-.24 1.56-.7.76-.86.68-2.17-.18-2.93-3.12-2.76-6.45-5.36-9.87-7.72-.95-.65-2.24-.41-2.89.53-.65.94-.41 2.24.53 2.89Zm-44.41 181c-3.95.47-8 .72-12.01.72-1.15 0-2.08.93-2.08 2.08s.93 2.08 2.08 2.08c4.18 0 8.38-.25 12.51-.75 1.14-.13 1.95-1.17 1.81-2.31-.14-1.14-1.18-1.96-2.31-1.81Zm87.57-99.1v.2c0 4.01-.24 8.05-.71 12.01-.13 1.14.67 2.17 1.82 2.31.09.01.17.01.25.01 1.04 0 1.93-.77 2.06-1.83.49-4.12.75-8.33.75-12.51v-.2c0-1.15-.93-2.08-2.08-2.08s-2.08.93-2.08 2.08Zm-175.83-65.09c.57 0 1.15-.23 1.56-.7 2.65-2.99 5.5-5.86 8.5-8.52.86-.76.94-2.08.17-2.93-.76-.86-2.08-.94-2.93-.17-3.11 2.77-6.09 5.75-8.85 8.87-.76.86-.68 2.17.18 2.93.39.35.89.52 1.38.52Zm172.92 41.25c.96 3.87 1.69 7.86 2.18 11.82.13 1.06 1.02 1.82 2.06 1.82.09 0 .17 0 .25-.01 1.14-.14 1.95-1.18 1.81-2.31-.51-4.14-1.27-8.28-2.26-12.33-.27-1.12-1.4-1.79-2.52-1.52s-1.79 1.4-1.52 2.52Zm-3.6-11.47c.31.83 1.1 1.34 1.94 1.34.25 0 .49-.05.74-.13 1.07-.41 1.61-1.61 1.2-2.68-1.48-3.89-3.22-7.73-5.17-11.42-.53-1.02-1.79-1.4-2.81-.87-1.02.53-1.4 1.79-.87 2.81 1.87 3.54 3.54 7.22 4.96 10.96Zm-10.58 94.98c.36.25.77.37 1.18.37.66 0 1.31-.31 1.71-.9 2.37-3.43 4.56-7.04 6.49-10.72.53-1.02.14-2.27-.87-2.81-1.02-.53-2.27-.14-2.81.87-1.86 3.53-3.95 7-6.23 10.29-.65.94-.41 2.24.53 2.89Zm-47.16 33.69c-3.73 1.42-7.6 2.63-11.48 3.58-1.12.27-1.8 1.4-1.52 2.51.23.95 1.08 1.58 2.02 1.58.17 0 .33-.02.5-.06 4.04-1 8.07-2.25 11.96-3.73 1.08-.41 1.61-1.61 1.2-2.68-.41-1.08-1.61-1.61-2.68-1.2Zm-113.01-24.31c.41.46.98.7 1.56.7.49 0 .98-.17 1.38-.52.86-.76.94-2.08.17-2.93-2.65-2.99-5.16-6.17-7.43-9.46-.65-.94-1.94-1.18-2.89-.53-.94.65-1.18 1.94-.53 2.89 2.37 3.42 4.97 6.73 7.74 9.85Zm41.44-161.88c.25 0 .49-.05.74-.13 3.73-1.42 7.6-2.63 11.48-3.59 1.12-.27 1.79-1.4 1.52-2.51-.27-1.12-1.4-1.79-2.51-1.52-4.04 1-8.07 2.26-11.96 3.74-1.07.41-1.61 1.61-1.2 2.68.31.83 1.1 1.34 1.94 1.34Zm-32.57 170.72c3.12 2.76 6.44 5.36 9.87 7.73.36.25.77.37 1.18.37.66 0 1.31-.31 1.71-.9.65-.94.41-2.24-.53-2.89-3.29-2.27-6.47-4.77-9.47-7.42-.86-.76-2.17-.68-2.93.18-.76.86-.68 2.17.18 2.93Zm103.97-170.96c3.73 1.41 7.43 3.07 10.98 4.93.31.16.63.24.96.24.75 0 1.47-.41 1.84-1.12.53-1.02.14-2.27-.88-2.81-3.69-1.94-7.54-3.66-11.44-5.13-1.08-.4-2.27.13-2.68 1.21-.41 1.08.13 2.27 1.21 2.68Zm-136.9 95.36c1.15 0 2.08-.98 2.08-2.12 0-3.97.23-7.98.7-11.91.13-1.14-.67-2.17-1.82-2.3-1.14-.14-2.17.67-2.3 1.82-.49 4.09-.73 8.26-.73 12.41v.1c0 1.15.93 2.03 2.08 2.03Zm89.3-101.02c.09 0 .17 0 .25-.01 3.95-.48 8-.73 12.01-.73 1.15 0 2.08-.94 2.07-2.08 0-1.15-.93-2.07-2.08-2.07-4.18 0-8.38.26-12.5.76-1.14.14-1.95 1.18-1.81 2.31.13 1.06 1.02 1.82 2.06 1.82Zm-86.89 76.66c.17.04.33.06.49.06.94 0 1.78-.63 2.02-1.58.95-3.89 2.15-7.76 3.57-11.49.41-1.08-.13-2.27-1.21-2.68s-2.27.13-2.68 1.21c-1.48 3.89-2.73 7.92-3.71 11.98-.27 1.12.41 2.24 1.52 2.51Zm87.34 121.13c-3.97-.47-7.96-1.2-11.83-2.14-1.12-.27-2.24.41-2.51 1.52s.41 2.24 1.52 2.51c4.04.99 8.18 1.74 12.33 2.24.09.01.17.01.25.01 1.04 0 1.93-.77 2.06-1.83.13-1.14-.67-2.17-1.82-2.31ZM327.98 157c.41 0 .82-.12 1.18-.37 3.29-2.28 6.75-4.38 10.27-6.24 1.02-.53 1.4-1.79.87-2.81-.53-1.02-1.79-1.4-2.81-.87-3.68 1.94-7.28 4.13-10.7 6.5-.94.65-1.18 1.95-.52 2.89.4.58 1.05.9 1.71.9Zm69.75-17.38c3.97.47 7.96 1.19 11.84 2.14.17.04.33.06.49.06.94 0 1.78-.63 2.02-1.58.27-1.12-.41-2.24-1.52-2.51-4.04-.99-8.19-1.74-12.33-2.22-1.14-.14-2.17.68-2.3 1.82-.13 1.14.68 2.17 1.82 2.3Zm-107.7 133.14c-1.07.41-1.61 1.61-1.2 2.68 1.48 3.89 3.22 7.74 5.16 11.42.37.71 1.1 1.11 1.84 1.11.33 0 .66-.08.97-.24 1.02-.53 1.4-1.79.87-2.81-1.86-3.53-3.53-7.22-4.95-10.96-.41-1.08-1.61-1.61-2.68-1.2Zm58.73 189.27c1.13-.19 1.89-1.27 1.7-2.4-.19-1.13-1.27-1.89-2.4-1.7-4.1.7-8.22 1.52-12.27 2.45-1.12.25-1.82 1.37-1.56 2.49.22.96 1.08 1.62 2.02 1.62.15 0 .31-.02.47-.05 3.97-.91 8.02-1.72 12.05-2.41Zm-25.09 1.5c-3.99 1.16-8 2.45-11.92 3.82-1.08.38-1.65 1.57-1.27 2.65.3.86 1.1 1.39 1.96 1.39.23 0 .46-.04.69-.12 3.84-1.35 7.78-2.61 11.7-3.75 1.1-.32 1.74-1.47 1.42-2.57s-1.47-1.74-2.57-1.42Zm86.27-3.33c4.06.44 8.15 1.01 12.17 1.68.11.02.23.03.34.03 1 0 1.88-.72 2.04-1.74.19-1.13-.57-2.2-1.71-2.39-4.09-.68-8.26-1.26-12.4-1.71-1.14-.12-2.16.7-2.29 1.84-.13 1.14.7 2.16 1.84 2.29h.01Zm24.22 4.04c3.97.9 7.98 1.92 11.9 3.03.19.05.38.08.57.08.9 0 1.74-.59 2-1.51.31-1.1-.33-2.25-1.43-2.57-3.99-1.14-8.08-2.18-12.13-3.09-1.12-.25-2.23.45-2.49 1.57s.45 2.23 1.57 2.49Zm-72.67 431.33c-4.05-.45-8.14-1.02-12.17-1.69-1.14-.19-2.2.57-2.39 1.7s.57 2.2 1.7 2.39c4.1.69 8.26 1.27 12.39 1.72.08 0 .15.01.23.01 1.04 0 1.94-.79 2.06-1.85.13-1.14-.69-2.16-1.84-2.29ZM230.81 523.23c2.87-2.88 5.87-5.73 8.91-8.45.86-.77.93-2.08.16-2.93s-2.08-.93-2.93-.16c-3.1 2.78-6.15 5.67-9.08 8.61-.81.82-.81 2.12 0 2.94.41.4.94.61 1.47.61s1.06-.2 1.47-.61Zm290.95-19.74c-.71.9-.57 2.2.33 2.92 3.19 2.54 6.35 5.2 9.4 7.92.39.35.89.53 1.38.53.57 0 1.14-.23 1.55-.69.76-.86.69-2.17-.17-2.93-3.1-2.77-6.33-5.48-9.57-8.06-.9-.71-2.2-.57-2.92.33Zm-321.51 58.1c2.16-3.45 4.46-6.89 6.83-10.22.66-.94.44-2.23-.49-2.89s-2.23-.44-2.89.49c-2.41 3.39-4.74 6.89-6.95 10.42-.61.97-.31 2.25.65 2.87.34.21.73.32 1.1.32.69 0 1.37-.35 1.76-.98Zm48.84-54.77c3.18-2.55 6.48-5.04 9.79-7.4.94-.67 1.15-1.96.49-2.9-.67-.94-1.96-1.15-2.9-.49-3.38 2.4-6.73 4.94-9.98 7.54-.9.71-1.04 2.02-.32 2.92.41.51 1.02.78 1.62.78.45 0 .92-.15 1.3-.45Zm255.16-18.14c-.98-.61-2.25-.31-2.87.65-.61.98-.31 2.25.65 2.87 3.46 2.17 6.9 4.46 10.23 6.82.37.26.78.38 1.2.38.65 0 1.29-.31 1.7-.88.66-.94.44-2.23-.49-2.89-3.39-2.4-6.89-4.74-10.42-6.95ZM604.5 665.03c.07 1.1.98 1.96 2.07 1.96h.12c1.14-.07 2.02-1.05 1.95-2.19-.24-4.16-.6-8.34-1.07-12.47-.13-1.14-1.15-1.96-2.3-1.83-1.14.13-1.96 1.16-1.83 2.3.46 4.04.82 8.16 1.05 12.23Zm-14.52-70.17c.27 0 .53-.05.8-.16 1.06-.44 1.56-1.66 1.12-2.72-1.6-3.83-3.33-7.66-5.14-11.39-.5-1.03-1.74-1.46-2.77-.96s-1.46 1.74-.96 2.77c1.78 3.66 3.47 7.42 5.04 11.18.33.79 1.1 1.28 1.92 1.28ZM480.96 875.24c-3.66 1.77-7.43 3.45-11.18 5.02-1.06.44-1.56 1.66-1.12 2.71.33.8 1.1 1.28 1.92 1.28.27 0 .53-.05.79-.16 3.83-1.59 7.67-3.31 11.4-5.11 1.04-.5 1.46-1.74.97-2.77-.5-1.04-1.74-1.47-2.77-.97Zm120.76-234.59c.17 1.02 1.05 1.72 2.04 1.72.11 0 .23 0 .35-.03 1.13-.19 1.89-1.27 1.7-2.4-.7-4.1-1.53-8.22-2.46-12.27-.26-1.12-1.38-1.81-2.49-1.56-1.12.26-1.82 1.37-1.56 2.49.92 3.97 1.72 8.02 2.41 12.04Zm-3.51-22.43c.19 0 .39-.03.58-.08 1.1-.32 1.74-1.47 1.42-2.57-1.16-3.98-2.45-8-3.83-11.92-.3-.86-1.12-1.39-1.98-1.38.36-.98.72-1.95 1.06-2.93.19-.54-.09-1.14-.63-1.32-.54-.19-1.14.09-1.32.63-.46 1.3-.93 2.61-1.42 3.9-.17.44 0 .91.35 1.18-.13.41-.13.87.02 1.3 1.36 3.85 2.62 7.78 3.75 11.69.26.91 1.1 1.5 1.99 1.5Zm-163.47 273.2c-3.97.91-8.02 1.71-12.05 2.39-1.13.19-1.89 1.26-1.7 2.39.17 1.02 1.05 1.73 2.04 1.73.11 0 .23 0 .35-.03 4.1-.69 8.23-1.51 12.27-2.44 1.12-.25 1.82-1.37 1.56-2.49-.25-1.12-1.38-1.82-2.49-1.56Zm167.18-166.37c-1.12-.26-2.23.45-2.49 1.56-.9 3.98-1.93 7.98-3.06 11.89-.31 1.1.32 2.25 1.42 2.57.19.05.39.08.57.08.9 0 1.73-.59 2-1.5 1.14-3.99 2.19-8.06 3.11-12.12.25-1.12-.45-2.23-1.56-2.49Zm5.03-49.82c-1.15 0-2.08.94-2.07 2.08v.57c0 4.09-.11 8.22-.34 12.28-.06 1.14.82 2.12 1.96 2.19h.11c1.1 0 2.01-.86 2.07-1.96.23-4.14.35-8.34.35-12.51v-.58c0-1.15-.94-2.07-2.08-2.07ZM502.41 863.34c-3.45 2.17-7 4.28-10.56 6.25-1 .55-1.37 1.82-.81 2.83.38.68 1.09 1.07 1.82 1.07.34 0 .69-.08 1-.26 3.63-2.01 7.25-4.15 10.76-6.36.97-.61 1.26-1.89.65-2.87-.61-.97-1.89-1.26-2.87-.65ZM176.34 607.11c.23.08.45.11.68.11.86 0 1.66-.53 1.96-1.4.13-.35.26-.71.39-1.07.53-.2.81-.8.6-1.34-.02-.05-.04-.11-.06-.16 1.09-3 2.22-5.99 3.44-8.93.44-1.06-.07-2.27-1.13-2.71-1.06-.43-2.28.07-2.71 1.13-.86 2.07-1.68 4.17-2.48 6.28-.41.25-.61.75-.45 1.22-.52 1.41-1.05 2.82-1.54 4.22-.37 1.08.19 2.26 1.28 2.65h.01Zm429.47 93.45c-1.14-.13-2.16.69-2.29 1.83-.45 4.05-1.02 8.14-1.7 12.17-.19 1.13.57 2.2 1.7 2.39.12.02.23.03.35.03 1 0 1.88-.71 2.04-1.73.69-4.1 1.28-8.26 1.73-12.39.13-1.14-.69-2.16-1.84-2.29Zm-65.1 132.2c-2.89 2.89-5.89 5.73-8.93 8.44-.86.76-.93 2.08-.17 2.93.41.46.98.69 1.55.69.49 0 .99-.17 1.38-.53 3.09-2.77 6.15-5.66 9.09-8.6.81-.81.81-2.12 0-2.94-.81-.81-2.12-.81-2.94 0Zm-18.3 16.36c-3.19 2.55-6.49 5.04-9.8 7.39-.94.66-1.16 1.96-.49 2.89.41.57 1.04.88 1.7.88.41 0 .84-.13 1.2-.39 3.37-2.4 6.73-4.93 9.99-7.53.9-.71 1.04-2.02.33-2.92s-2.02-1.04-2.92-.33Zm72.89-100.18c-1.08-.37-2.26.19-2.65 1.28-1.35 3.85-2.83 7.72-4.39 11.5-.44 1.06.07 2.28 1.12 2.71.26.11.53.16.79.16.82 0 1.59-.48 1.92-1.28 1.6-3.85 3.1-7.79 4.47-11.71.38-1.08-.19-2.26-1.28-2.65Zm-35.29 65.19c-.9-.71-2.2-.57-2.92.33-2.55 3.19-5.22 6.35-7.93 9.38-.76.86-.69 2.17.16 2.93.39.35.89.53 1.38.53.57 0 1.14-.23 1.55-.69 2.77-3.09 5.49-6.31 8.08-9.56.71-.9.57-2.2-.33-2.92Zm-269.95 65.14c.77 0 1.52-.43 1.87-1.18.5-1.04.06-2.28-.97-2.77-3.68-1.78-7.36-3.67-10.92-5.65-1-.55-2.26-.19-2.83.82s-.19 2.26.82 2.83c3.63 2.01 7.38 3.95 11.13 5.75.29.14.59.21.9.21ZM172.24 629.44c.9-3.97 1.92-7.98 3.04-11.9.31-1.1-.32-2.25-1.42-2.57-1.1-.32-2.25.32-2.57 1.42-1.14 3.99-2.18 8.08-3.1 12.13-.25 1.12.45 2.23 1.57 2.49.15.03.31.05.46.05.95 0 1.8-.65 2.02-1.62Zm22 154.54c-.55-1-1.82-1.36-2.83-.81-1 .55-1.36 1.82-.81 2.83 2.01 3.63 4.16 7.25 6.37 10.76.39.63 1.07.97 1.76.97.38 0 .76-.1 1.11-.32.97-.61 1.26-1.9.65-2.87-2.17-3.45-4.28-7-6.25-10.56Zm346.19-264.2c-.81.82-.81 2.12 0 2.94 2.89 2.87 5.73 5.87 8.46 8.91.41.45.98.69 1.54.69.49 0 .99-.17 1.39-.53.86-.77.92-2.08.16-2.93-2.78-3.09-5.67-6.15-8.62-9.07-.82-.81-2.12-.81-2.94 0ZM183.57 761.91c-.44-1.06-1.66-1.56-2.71-1.12-1.06.44-1.56 1.66-1.12 2.71 1.59 3.82 3.31 7.66 5.12 11.4.36.74 1.1 1.17 1.87 1.17.3 0 .61-.07.9-.21 1.04-.5 1.46-1.74.97-2.77-1.78-3.67-3.47-7.43-5.02-11.18Zm380.68-211.12c.41.57 1.04.87 1.69.87.41 0 .84-.13 1.2-.39.94-.67 1.15-1.96.48-2.9-2.41-3.38-4.95-6.73-7.55-9.97-.71-.9-2.02-1.04-2.92-.32-.9.71-1.04 2.02-.32 2.92 2.55 3.18 5.04 6.47 7.41 9.79Zm-294.8 312.63c-3.45-2.17-6.89-4.47-10.22-6.83-.94-.66-2.23-.44-2.89.49s-.44 2.23.49 2.89c3.39 2.4 6.89 4.75 10.41 6.96.34.21.73.32 1.1.32.69 0 1.36-.34 1.76-.97.61-.97.32-2.25-.65-2.87Zm-46.8-39.5c-.77-.86-2.08-.93-2.93-.16s-.93 2.08-.16 2.93c2.77 3.09 5.67 6.15 8.6 9.09.41.41.94.61 1.47.61s1.06-.2 1.47-.61c.81-.81.81-2.12 0-2.94-2.88-2.88-5.73-5.88-8.44-8.92Zm163.37 72.97h-.15c-4.03 0-8.11-.11-12.13-.33-1.13-.07-2.12.82-2.18 1.96-.06 1.15.82 2.12 1.96 2.18.38.02.77.03 1.16.05l-6.85 6.85c-.81.81-.81 2.12 0 2.94.41.41.94.61 1.47.61s1.06-.2 1.47-.61l8.81-8.81c.22-.22.38-.49.48-.76 1.94.05 3.89.08 5.85.08h.13c1.15 0 2.08-.93 2.08-2.08s-.93-2.08-2.08-2.08h-.01Zm-136.6-47.69c-3.19-2.54-6.35-5.21-9.39-7.92-.86-.76-2.17-.69-2.93.17-.76.86-.69 2.17.17 2.93 3.1 2.77 6.32 5.48 9.57 8.08.38.31.84.45 1.3.45.61 0 1.22-.27 1.62-.78.71-.9.57-2.2-.33-2.92Zm-42.09-44.46c-.67-.94-1.96-1.16-2.9-.49-.94.66-1.16 1.96-.49 2.9 2.41 3.38 4.94 6.74 7.54 9.98.41.51 1.02.78 1.62.78.45 0 .92-.15 1.3-.45.9-.71 1.04-2.02.33-2.92-2.55-3.19-5.04-6.48-7.4-9.8Zm-31.89-65.96c-.32-1.1-1.47-1.74-2.57-1.42-1.1.32-1.74 1.47-1.42 2.57 1.16 3.99 2.43 8 3.81 11.92.3.86 1.1 1.39 1.96 1.39.23 0 .46-.04.69-.12 1.08-.38 1.65-1.56 1.27-2.65-1.35-3.85-2.61-7.78-3.74-11.7Zm-10.65-58.54c1.15 0 2.08-.93 2.08-2.08v-.29c0-3.99.11-8.02.32-11.99.06-1.14-.82-2.12-1.96-2.18-1.16-.07-2.12.82-2.18 1.96-.22 4.04-.33 8.15-.33 12.23v.28c0 1.15.93 2.08 2.08 2.08Zm1.11-24.76c.08 0 .15.01.23.01 1.04 0 1.94-.79 2.06-1.85.45-4.06 1.02-8.15 1.68-12.17.19-1.13-.57-2.2-1.7-2.39-1.13-.18-2.2.57-2.39 1.7-.68 4.09-1.26 8.26-1.72 12.39-.13 1.14.69 2.16 1.84 2.29Zm45.66-113.62c.38.31.84.45 1.29.45.61 0 1.22-.27 1.62-.78 2.54-3.19 5.2-6.35 7.92-9.39.76-.86.69-2.17-.17-2.93s-2.16-.69-2.93.17c-2.77 3.1-5.48 6.32-8.07 9.57-.71.9-.57 2.2.33 2.92Zm-39.19 185.02c-.91-3.97-1.72-8.02-2.4-12.05-.19-1.13-1.26-1.89-2.4-1.7-1.13.19-1.89 1.26-1.7 2.4.69 4.1 1.52 8.23 2.45 12.27.22.96 1.08 1.62 2.02 1.62.15 0 .31-.01.47-.05 1.12-.25 1.82-1.37 1.56-2.49Zm-5.95-21.91c1.14-.13 1.96-1.16 1.83-2.3-.45-4.04-.8-8.16-1.04-12.24-.07-1.15-1.04-2.01-2.19-1.96-1.14.07-2.02 1.05-1.96 2.19.23 4.16.59 8.35 1.06 12.47.12 1.06 1.02 1.84 2.06 1.84.08 0 .15 0 .23-.01Zm410.94-133.45c.38.68 1.09 1.07 1.82 1.07.34 0 .69-.09 1.01-.26 1-.56 1.36-1.82.8-2.83-2.02-3.62-4.16-7.24-6.39-10.75-.61-.97-1.9-1.26-2.87-.65-.97.61-1.26 1.9-.65 2.87 2.18 3.44 4.29 6.99 6.27 10.55ZM164.78 460.48c.57 0 1.04-.47 1.04-1.04v-2.07c0-.57-.45-1.04-1.03-1.05-.57-.04-1.04.45-1.05 1.03v2.08c0 .57.47 1.04 1.04 1.04Zm47.04-136.34c.31 0 .61-.13.82-.4.85-1.08 1.7-2.15 2.57-3.21.36-.45.29-1.1-.15-1.46-.44-.36-1.1-.29-1.46.15-.88 1.08-1.74 2.16-2.59 3.25-.35.45-.27 1.1.17 1.46.19.15.41.22.64.22Zm-4.98 6.61c.32 0 .64-.15.84-.43.81-1.11 1.62-2.21 2.45-3.31.35-.46.25-1.11-.2-1.46-.46-.35-1.11-.25-1.46.2-.84 1.1-1.66 2.22-2.47 3.34-.33.46-.23 1.12.23 1.45.19.13.4.2.61.2Zm15.67-19.23c.28 0 .56-.11.77-.34.92-1.02 1.86-2.02 2.8-3.01.39-.41.37-1.08-.04-1.47-.41-.39-1.08-.37-1.47.04-.96 1-1.9 2.02-2.83 3.04-.39.42-.35 1.08.07 1.47.2.18.45.27.7.27Zm-5.46 6.21c.29 0 .59-.13.79-.37.89-1.05 1.78-2.08 2.69-3.12.38-.43.33-1.09-.09-1.46-.43-.38-1.09-.33-1.46.09-.92 1.04-1.82 2.09-2.71 3.15-.37.43-.31 1.1.12 1.46.19.17.43.25.67.25Zm11.14-12.21c.27 0 .53-.11.74-.31.96-.98 1.93-1.94 2.91-2.91.41-.4.41-1.06.01-1.47-.4-.41-1.06-.41-1.47-.01-.99.97-1.97 1.94-2.94 2.93-.4.41-.39 1.07.01 1.47.2.2.47.3.73.3Zm-39.21 53.26c.15.08.31.11.47.11.37 0 .74-.21.92-.56.63-1.22 1.28-2.44 1.93-3.64.27-.5.09-1.14-.42-1.41-.5-.27-1.14-.09-1.41.42-.66 1.22-1.31 2.45-1.95 3.67-.27.51-.07 1.14.44 1.4h.01Zm13.12-21.25c.33 0 .66-.16.86-.46.76-1.14 1.54-2.27 2.32-3.4.33-.47.21-1.12-.25-1.44s-1.12-.21-1.44.25c-.79 1.14-1.58 2.28-2.34 3.43-.32.47-.19 1.12.29 1.44.18.12.38.17.57.17Zm-9.21 13.95c.16.09.34.13.51.13.36 0 .71-.19.9-.53.67-1.2 1.37-2.38 2.06-3.57.29-.49.13-1.13-.37-1.42-.49-.29-1.13-.13-1.42.37-.71 1.2-1.4 2.39-2.08 3.6-.28.5-.11 1.14.39 1.42Zm41.2-51.75c.25 0 .51-.09.71-.28 1-.94 2-1.87 3.01-2.79.43-.39.45-1.04.07-1.47-.39-.42-1.04-.45-1.47-.07-1.02.93-2.04 1.87-3.05 2.82-.41.39-.43 1.05-.04 1.47.21.21.48.33.75.33Zm-37.02 44.6c.17.11.36.15.55.15.35 0 .69-.17.88-.49.72-1.17 1.46-2.33 2.2-3.49.31-.48.17-1.12-.31-1.44-.48-.31-1.13-.17-1.44.31-.75 1.16-1.49 2.34-2.22 3.52-.3.49-.15 1.13.34 1.43Zm49.44-55.5c.23 0 .46-.07.65-.23 1.06-.86 2.13-1.72 3.21-2.57.45-.35.53-1.01.18-1.46-.35-.45-1.01-.53-1.46-.18-1.09.86-2.17 1.72-3.25 2.59-.45.36-.51 1.02-.15 1.46.21.25.51.38.81.38Zm34.25-22.9c.17 0 .33-.04.49-.13 1.2-.65 2.41-1.29 3.63-1.92.11-.06.2-.14.28-.23.3.83 1.08 1.37 1.94 1.37.17 0 .33-.02.5-.06 1.12-.27 1.79-1.4 1.52-2.51-.05-.21-.09-.42-.15-.63 1.08-.53 2.16-1.06 3.26-1.57.52-.25.74-.86.49-1.38-.25-.52-.86-.74-1.38-.49-.96.45-1.9.92-2.85 1.38-.65-3.01-1.17-6.07-1.54-9.12-.14-1.14-1.18-1.96-2.31-1.81-1.14.14-1.95 1.17-1.81 2.31.44 3.64 1.1 7.29 1.92 10.87-.26-.09-.56-.09-.83.05-1.23.63-2.45 1.28-3.66 1.94-.5.27-.69.9-.42 1.41.19.35.55.54.92.54Zm-7.18 4.06c.18 0 .36-.05.53-.15 1.18-.69 2.36-1.38 3.55-2.06.5-.28.67-.92.39-1.42s-.92-.67-1.42-.39c-1.2.68-2.4 1.37-3.59 2.07-.49.29-.65.93-.37 1.42.19.33.54.51.9.51Zm-7.02 4.34c.19 0 .39-.05.56-.17 1.15-.74 2.31-1.47 3.47-2.18.49-.3.64-.94.34-1.43s-.94-.64-1.43-.34c-1.18.73-2.34 1.46-3.51 2.2-.48.31-.62.96-.31 1.44.2.31.53.47.88.47Zm35.59-19.55c.16.41.55.65.96.65.13 0 .26-.03.39-.07 1.27-.51 2.55-1.02 3.83-1.5.53-.21.8-.81.6-1.34-.21-.53-.81-.8-1.34-.6-1.3.49-2.59 1-3.87 1.52-.53.21-.79.82-.57 1.35Zm-42.46 24.16c.21 0 .41-.06.59-.19 1.12-.78 2.25-1.56 3.39-2.32.47-.32.6-.96.29-1.44-.32-.47-.96-.61-1.44-.29-1.15.77-2.29 1.55-3.43 2.34-.47.33-.59.98-.26 1.44.2.29.53.45.86.45Zm-19.5 15.27c.24 0 .49-.09.68-.26 1.03-.9 2.07-1.8 3.12-2.68.44-.37.49-1.02.13-1.46s-1.03-.49-1.46-.13c-1.06.9-2.1 1.8-3.15 2.71-.43.38-.47 1.04-.09 1.46.21.23.49.35.78.35Zm75.52-44.44c-.19-.54-.77-.84-1.32-.65-1.31.45-2.62.9-3.92 1.37-.54.19-.82.79-.63 1.33.15.42.55.69.98.69.12 0 .23-.02.35-.06 1.29-.47 2.59-.92 3.88-1.36.54-.19.84-.77.65-1.32ZM253 283.8c.21 0 .43-.07.62-.21 1.1-.82 2.2-1.64 3.31-2.44.47-.33.57-.99.23-1.45s-.98-.57-1.45-.23c-1.12.81-2.23 1.63-3.33 2.47-.46.35-.55 1-.21 1.46.21.27.51.41.83.41Zm348.68 132.63c.27 1.34.52 2.69.76 4.04.09.5.53.86 1.02.86.06 0 .12 0 .18-.01.57-.1.94-.64.84-1.2-.25-1.36-.5-2.73-.77-4.08-.11-.56-.65-.92-1.22-.82-.56.11-.93.66-.82 1.22Zm-24.22-65.21c.19.34.54.53.9.53.17 0 .35-.04.51-.13.5-.28.67-.92.39-1.42-.68-1.2-1.38-2.4-2.08-3.59-.29-.49-.93-.65-1.42-.37-.49.29-.65.93-.37 1.42.69 1.18 1.38 2.36 2.06 3.55Zm-8.62-13.98c.2.3.53.46.86.46.2 0 .4-.06.57-.17.47-.32.6-.96.29-1.44-.77-1.15-1.55-2.29-2.34-3.43-.33-.47-.98-.59-1.44-.26-.47.33-.59.98-.26 1.44.78 1.12 1.56 2.25 2.32 3.39Zm4.44 6.91c.19.32.53.49.88.49.19 0 .37-.05.54-.15.49-.3.64-.94.34-1.43-.73-1.18-1.46-2.34-2.21-3.51-.31-.48-.95-.62-1.44-.31-.48.31-.62.96-.31 1.44.74 1.15 1.47 2.31 2.19 3.47Zm9.94 17.94c.61 1.22 1.2 2.46 1.78 3.69.17.37.55.59.94.59.15 0 .3-.03.44-.1.52-.25.74-.86.49-1.38-.59-1.25-1.19-2.49-1.8-3.73-.25-.51-.88-.73-1.39-.47-.51.25-.72.88-.47 1.39Zm-3.77-7.29c.65 1.2 1.29 2.41 1.92 3.63.19.35.55.56.92.56.16 0 .32-.04.47-.11.51-.26.71-.89.45-1.4-.63-1.23-1.28-2.45-1.94-3.66-.27-.5-.9-.69-1.41-.42-.5.27-.69.9-.42 1.41Zm-30.86-43.44c.21.23.49.34.77.34.25 0 .5-.09.7-.27.42-.39.45-1.04.07-1.47-.93-1.02-1.87-2.04-2.82-3.04-.39-.42-1.06-.43-1.47-.04s-.43 1.05-.04 1.47c.94 1 1.87 2 2.8 3.01Zm5.42 6.19c.21.24.5.37.79.37.23 0 .47-.08.67-.25.44-.37.49-1.02.12-1.46-.9-1.06-1.8-2.1-2.71-3.15-.38-.43-1.04-.47-1.46-.09-.43.38-.47 1.04-.09 1.46.9 1.03 1.8 2.07 2.69 3.12Zm32.7 51.95c.56 1.24 1.11 2.5 1.64 3.75.17.39.55.63.96.63.13 0 .27-.03.41-.09.53-.23.77-.84.55-1.36-.54-1.27-1.1-2.53-1.66-3.79-.23-.52-.85-.75-1.37-.52-.52.23-.75.85-.52 1.37Zm-27.52-45.57c.21.26.51.4.82.4.23 0 .45-.07.64-.22.45-.35.53-1.01.18-1.46-.86-1.09-1.72-2.17-2.59-3.24-.36-.45-1.02-.51-1.46-.15-.45.36-.51 1.02-.15 1.46.86 1.06 1.72 2.13 2.57 3.21Zm4.94 6.55c.2.28.52.43.84.43.21 0 .43-.07.61-.2.47-.33.57-.99.23-1.45-.81-1.12-1.63-2.23-2.47-3.33-.35-.46-1-.55-1.46-.21-.46.35-.55 1-.21 1.46.82 1.1 1.64 2.2 2.45 3.31Zm25.79 46.55c.51 1.27 1.02 2.55 1.51 3.83.16.41.55.67.97.67.13 0 .25-.02.37-.07.53-.21.8-.81.6-1.34-.49-1.3-1-2.59-1.52-3.87-.21-.53-.82-.79-1.35-.57-.53.21-.79.82-.57 1.35Zm-46.99-71.64c.2.21.47.31.74.31s.53-.1.73-.29c.41-.4.41-1.06.01-1.47-.97-.99-1.95-1.96-2.93-2.94-.41-.4-1.07-.39-1.47.01-.4.41-.39 1.07.01 1.47.98.96 1.94 1.93 2.91 2.91Zm61.33 127.25c.17 1.36.32 2.72.46 4.09.05.53.51.94 1.03.94h.11c.57-.06.99-.57.93-1.14-.14-1.38-.29-2.75-.46-4.13-.07-.57-.58-.98-1.16-.91-.57.07-.98.59-.91 1.16ZM185.3 366.23c.14.07.29.1.44.1.39 0 .76-.22.94-.59.59-1.24 1.18-2.49 1.8-3.71.25-.51.05-1.14-.47-1.39-.51-.25-1.14-.05-1.39.47-.61 1.24-1.22 2.49-1.81 3.75-.25.52-.02 1.14.49 1.38Zm419.79 74.6c.11 1.36.21 2.73.31 4.1.03.55.49.97 1.04.97h.07c.57-.04 1.01-.53.97-1.1-.09-1.38-.19-2.77-.31-4.14-.05-.57-.55-1-1.12-.95-.57.05-1 .55-.95 1.12Zm1.53 7.12c-.57.03-1.02.51-.99 1.09.07 1.36.11 2.73.15 4.11.01.56.48 1.01 1.04 1.01h.03c.57-.01 1.02-.49 1.01-1.07-.04-1.38-.09-2.77-.15-4.15-.03-.57-.53-1.01-1.09-.99Zm-3.51-23.46c.21 1.35.42 2.71.61 4.07.07.52.52.9 1.03.9.05 0 .1 0 .15-.01.57-.08.96-.61.88-1.18-.19-1.38-.4-2.74-.61-4.11-.09-.57-.63-.96-1.19-.86-.57.09-.96.62-.86 1.19Zm-7.61-31.99c.41 1.3.82 2.62 1.22 3.93.13.45.55.74 1 .74.1 0 .2-.01.3-.05.55-.17.86-.74.69-1.29-.39-1.33-.8-2.65-1.22-3.97-.17-.55-.76-.85-1.3-.67-.55.17-.85.76-.67 1.3Zm4.41 15.86c.31 1.33.62 2.67.92 4.01.11.49.53.82 1.02.82.07 0 .15 0 .22-.03.56-.12.92-.67.79-1.24-.29-1.36-.6-2.71-.92-4.05-.13-.56-.69-.9-1.25-.77s-.9.69-.77 1.25Zm-7.05-23.64c.47 1.29.92 2.59 1.36 3.88.15.43.55.71.98.71.11 0 .22-.02.33-.05.54-.19.84-.77.65-1.32-.45-1.32-.9-2.62-1.38-3.92-.19-.54-.79-.82-1.33-.62-.54.19-.82.79-.62 1.33Zm5 15.67c.37 1.32.72 2.65 1.06 3.97.12.47.54.78 1 .78.09 0 .17-.01.26-.03.55-.14.89-.71.75-1.26-.35-1.34-.7-2.68-1.08-4.02-.15-.55-.72-.88-1.28-.72-.55.15-.88.73-.72 1.28ZM350.62 240.11c-.57.09-.96.62-.86 1.19.08.51.52.88 1.02.88.05 0 .11 0 .17-.01 1.35-.21 2.71-.42 4.07-.61.57-.08.96-.6.88-1.17s-.61-.97-1.17-.88c-1.38.19-2.74.39-4.11.61Zm65.9 1.42c1.36.19 2.72.39 4.07.61.05 0 .11.01.17.01.5 0 .94-.37 1.02-.88.09-.57-.29-1.1-.86-1.19-1.36-.21-2.73-.42-4.11-.61-.57-.09-1.1.31-1.17.88-.08.57.31 1.1.88 1.17Zm8.49-.75c-.57-.11-1.1.27-1.2.84-.1.57.27 1.1.84 1.2 1.35.24 2.7.49 4.04.76.07.01.13.02.2.02.49 0 .92-.34 1.02-.84.11-.56-.25-1.11-.82-1.22-1.36-.27-2.72-.52-4.08-.77Zm6.91 2.41c-.12.56.23 1.12.79 1.24 1.34.29 2.68.59 4.02.91.08.02.16.03.24.03.47 0 .9-.32 1.01-.8.13-.56-.21-1.12-.77-1.25-1.34-.32-2.7-.63-4.05-.92-.55-.12-1.12.23-1.24.79Zm17.32 3.35c-.55-.16-1.13.15-1.29.7-.16.55.15 1.13.7 1.29 1.32.39 2.64.79 3.95 1.22.11.03.21.05.31.05.44 0 .85-.28.99-.72.17-.55-.13-1.13-.67-1.3-1.32-.42-2.65-.83-3.99-1.23Zm-8.52-.21c1.33.34 2.65.69 3.97 1.06.09.03.19.04.28.04.45 0 .88-.3 1-.76.15-.55-.17-1.12-.72-1.28-1.33-.37-2.67-.73-4.02-1.07-.56-.15-1.12.19-1.26.75-.14.55.19 1.12.75 1.26Zm96.33 53.29c.2.19.45.29.71.29.27 0 .55-.11.75-.33.39-.41.37-1.08-.04-1.47-1-.95-2.02-1.9-3.04-2.83-.42-.39-1.08-.35-1.47.07s-.35 1.08.07 1.47c1.02.92 2.02 1.86 3.01 2.8Zm-219.42-50.53c.14.44.55.72.99.72.11 0 .21-.01.31-.05 1.3-.41 2.62-.82 3.93-1.21.55-.17.86-.74.7-1.29-.17-.55-.75-.86-1.29-.7-1.33.39-2.65.8-3.97 1.22-.55.17-.85.75-.67 1.3Zm-17.4 6.47c-.23-.53-.84-.77-1.36-.55-1.27.54-2.53 1.1-3.79 1.66-.52.23-.75.85-.52 1.37.17.39.55.61.95.61.14 0 .29-.03.42-.09 1.25-.56 2.5-1.1 3.75-1.64.53-.23.77-.84.55-1.36Zm26.31-8.1c.09 0 .19-.01.28-.04 1.32-.37 2.65-.72 3.97-1.06.55-.14.89-.71.75-1.26s-.71-.89-1.26-.75c-1.34.35-2.68.7-4.02 1.08-.55.15-.88.73-.72 1.28.13.46.55.76 1 .76Zm129.98 3.57c1.3.44 2.61.9 3.89 1.36.11.04.23.06.35.06.43 0 .82-.26.98-.69.19-.54-.09-1.14-.63-1.33-1.31-.47-2.62-.93-3.93-1.38-.54-.18-1.14.11-1.32.65-.19.54.11 1.14.65 1.32Zm-118.16-8.59c-1.36.29-2.71.6-4.05.92-.56.13-.9.69-.77 1.25.11.48.54.8 1.01.8.08 0 .16 0 .24-.03 1.33-.31 2.67-.62 4.02-.92.56-.12.92-.67.79-1.24-.12-.56-.67-.92-1.24-.79ZM518.2 283.7c.19.14.41.21.63.21.31 0 .63-.14.83-.41.35-.45.25-1.11-.21-1.46-1.11-.84-2.22-1.66-3.34-2.47-.46-.33-1.12-.23-1.45.23-.33.46-.23 1.12.23 1.45 1.11.81 2.21 1.62 3.31 2.45Zm6.48 5.08c.19.15.43.23.65.23.3 0 .6-.13.81-.38.36-.45.29-1.1-.15-1.46-1.08-.88-2.16-1.74-3.25-2.59-.45-.35-1.1-.27-1.46.17-.35.45-.27 1.1.17 1.46 1.08.85 2.15 1.7 3.21 2.57Zm-13.15-9.91c.18.13.39.19.59.19.33 0 .65-.15.86-.44.33-.47.21-1.12-.26-1.44-1.14-.79-2.28-1.58-3.43-2.34-.47-.32-1.12-.19-1.44.29-.32.47-.19 1.12.29 1.44 1.14.76 2.28 1.54 3.4 2.32Zm19.43 15.22c.2.17.44.26.68.26.29 0 .57-.12.78-.35.38-.43.33-1.09-.09-1.46-1.04-.92-2.09-1.82-3.15-2.71-.44-.37-1.1-.31-1.46.12-.37.44-.31 1.1.12 1.46 1.05.89 2.08 1.78 3.12 2.69Zm-29.76-22.01c1.17.72 2.33 1.46 3.49 2.2.17.11.37.17.56.17.34 0 .67-.17.88-.47.31-.48.17-1.12-.31-1.44-1.17-.75-2.34-1.49-3.52-2.22-.49-.3-1.13-.15-1.43.34s-.15 1.13.34 1.43Zm-32.69-16.67c.41 0 .8-.25.96-.65.21-.53-.04-1.14-.57-1.35-1.29-.52-2.58-1.03-3.88-1.52-.53-.21-1.14.06-1.34.6-.21.53.07 1.14.6 1.34 1.28.49 2.57 1 3.84 1.51.13.05.26.07.39.07Zm18.07 6.91c-.19-.7-.74-1.28-1.5-1.46-.16-.04-.31-.05-.47-.05-.09-.25-.27-.47-.52-.59-1.24-.61-2.49-1.22-3.75-1.81-.51-.25-1.14-.02-1.38.49-.25.52-.02 1.14.49 1.38 1.11.52 2.21 1.06 3.31 1.6-.09.15-.16.32-.2.5-.96 3.89-2.16 7.75-3.57 11.49-.41 1.08.13 2.27 1.2 2.68.24.09.49.13.73.13.84 0 1.63-.51 1.94-1.34 1.44-3.8 2.67-7.73 3.65-11.68.09.11.19.2.33.27 1.22.63 2.44 1.28 3.64 1.93.16.09.33.13.49.13.37 0 .73-.19.92-.54.27-.5.09-1.14-.42-1.41-1.22-.66-2.45-1.31-3.67-1.95-.43-.22-.92-.11-1.23.23Zm-14.65-5.4c1.27.54 2.53 1.09 3.78 1.65.14.06.28.09.43.09.39 0 .77-.23.95-.61.23-.52 0-1.14-.52-1.37-1.27-.57-2.54-1.12-3.81-1.67-.53-.23-1.14.02-1.36.55-.23.53.02 1.14.55 1.36Zm22.17 10.96c1.2.67 2.38 1.36 3.57 2.06.17.1.35.15.53.15.35 0 .7-.18.9-.51.29-.49.13-1.13-.37-1.42-1.2-.71-2.39-1.4-3.6-2.08-.5-.28-1.14-.11-1.42.39s-.11 1.14.39 1.42Zm-151.48-24.24c.07 0 .13 0 .2-.02 1.34-.27 2.69-.52 4.04-.76.56-.1.94-.64.84-1.2s-.63-.94-1.2-.84c-1.36.24-2.73.5-4.08.77-.56.11-.93.65-.82 1.22.1.49.53.84 1.02.84ZM169.55 413.29c.07.01.15.03.22.03.48 0 .91-.33 1.02-.82.29-1.34.59-2.68.92-4.01.13-.55-.21-1.12-.77-1.25-.55-.13-1.12.21-1.25.77-.32 1.34-.63 2.69-.92 4.05-.12.56.23 1.12.79 1.24Zm-4.77 40.99h.03c.56 0 1.02-.45 1.04-1.01.04-1.38.09-2.75.15-4.11.03-.57-.41-1.06-.99-1.08-.56 0-1.06.41-1.08.99-.06 1.38-.11 2.77-.15 4.15-.01.57.43 1.05 1.01 1.07Zm3.2-32.89c.06.01.12.01.18.01.49 0 .93-.35 1.02-.86.24-1.35.49-2.7.76-4.04.11-.56-.25-1.11-.82-1.22-.56-.11-1.11.25-1.22.82-.27 1.36-.52 2.72-.77 4.08-.1.57.27 1.1.84 1.2Zm13.94-47.58c.13.06.27.09.41.09.4 0 .79-.24.96-.63.54-1.27 1.09-2.53 1.65-3.78.23-.52 0-1.14-.52-1.37-.52-.24-1.14 0-1.37.52-.57 1.26-1.12 2.54-1.67 3.81-.23.53.02 1.14.55 1.36Zm-16.15 63.97h.11c.53 0 .98-.4 1.03-.94.14-1.37.29-2.73.45-4.09.07-.57-.33-1.09-.91-1.16-.56-.07-1.09.33-1.16.91-.17 1.37-.32 2.75-.46 4.13-.06.57.35 1.08.93 1.14Zm-.65 8.25h.07c.54 0 1-.42 1.04-.97.09-1.37.19-2.74.3-4.1.05-.57-.37-1.08-.95-1.12-.57-.05-1.08.37-1.12.95-.11 1.38-.21 2.76-.31 4.14-.03.57.4 1.07.97 1.1Zm1.6-16.45s.1.01.15.01c.51 0 .96-.37 1.03-.9.19-1.36.39-2.72.61-4.07.09-.57-.29-1.1-.86-1.19-.56-.09-1.1.29-1.19.86-.21 1.36-.42 2.73-.61 4.11-.08.57.31 1.1.88 1.17Zm4.7-24.34c.09.02.17.03.26.03.46 0 .88-.31 1-.78.34-1.33.69-2.65 1.06-3.97.15-.55-.17-1.12-.72-1.28-.55-.15-1.12.17-1.28.72-.37 1.33-.73 2.67-1.07 4.02-.14.55.19 1.12.75 1.26Zm2.17-7.97c.1.03.2.05.29.05.45 0 .86-.29 1-.74.39-1.32.79-2.64 1.22-3.95.17-.55-.13-1.13-.67-1.3-.54-.17-1.13.13-1.3.67-.42 1.32-.83 2.65-1.23 3.99-.17.55.15 1.13.7 1.29Zm5.26-15.75c.12.05.25.07.37.07.42 0 .82-.25.97-.67.49-1.29 1-2.57 1.51-3.84.21-.53-.04-1.14-.57-1.35-.53-.21-1.14.04-1.35.57-.52 1.29-1.03 2.58-1.52 3.87-.21.53.06 1.14.6 1.34Zm-2.78 7.82c.11.04.22.05.33.05.43 0 .84-.27.98-.71.44-1.3.9-2.61 1.36-3.89.19-.54-.09-1.14-.62-1.33-.54-.19-1.14.09-1.33.62-.47 1.3-.93 2.62-1.38 3.93-.19.54.11 1.14.65 1.32Zm430.81 67.01h-.01c-.57 0-1.04.47-1.03 1.05v2.06c0 .57.47 1.04 1.04 1.04s1.04-.47 1.04-1.04v-2.08c0-.57-.47-1.03-1.04-1.03ZM322.51 738.58c1.33.39 2.67.77 4.02 1.15.09.03.19.04.27.04.45 0 .88-.3 1-.76.15-.55-.17-1.12-.72-1.28-1.33-.37-2.65-.75-3.97-1.14-.55-.17-1.13.15-1.29.7-.16.55.15 1.13.7 1.29Zm-15.85-5.37c1.3.49 2.61.98 3.93 1.46.11.04.23.06.35.06.43 0 .82-.26.98-.69.19-.54-.09-1.14-.63-1.33-1.3-.47-2.6-.95-3.89-1.44-.53-.21-1.14.07-1.34.6-.21.53.07 1.14.6 1.34Zm94.1 11.94c-1.37.09-2.75.17-4.13.24-.57.03-1.02.51-.99 1.09.03.55.49.99 1.04.99h.05c1.39-.07 2.78-.15 4.16-.24.57-.04 1-.53.97-1.1-.04-.57-.53-.99-1.1-.97Zm-86.22-9.11c1.32.45 2.65.88 3.98 1.3.11.03.21.05.31.05.44 0 .85-.28.99-.72.17-.55-.13-1.13-.67-1.3-1.32-.42-2.63-.85-3.94-1.3-.54-.18-1.14.11-1.32.65-.19.54.11 1.14.65 1.32Zm-27.05-11.2c.15.07.31.11.46.11.38 0 .75-.21.94-.58.25-.51.05-1.14-.47-1.39-1.24-.61-2.47-1.24-3.69-1.87-.51-.27-1.14-.07-1.4.44s-.07 1.14.45 1.4c1.24.64 2.48 1.27 3.73 1.89h-.01Zm3.77 1.82c1.26.59 2.53 1.18 3.8 1.75.14.06.28.09.42.09.39 0 .77-.23.95-.61.23-.52 0-1.14-.52-1.38-1.26-.57-2.52-1.14-3.77-1.73-.52-.25-1.14-.02-1.38.49-.25.52-.02 1.14.49 1.38ZM409 744.45c-1.37.14-2.74.27-4.12.39-.57.05-1 .55-.94 1.12.05.54.5.95 1.04.95h.09c1.39-.12 2.77-.25 4.16-.39.57-.06.98-.57.92-1.14-.06-.57-.58-.99-1.14-.92Zm-110.1-14.37c1.28.55 2.57 1.08 3.87 1.6.13.05.26.07.39.07.41 0 .8-.25.96-.65.21-.53-.04-1.14-.57-1.35-1.28-.51-2.56-1.05-3.83-1.59-.53-.23-1.14.02-1.36.55s.02 1.14.55 1.36Zm39.78 12.64c1.36.29 2.72.57 4.09.84.07.01.13.02.2.02.49 0 .92-.34 1.02-.84.11-.56-.25-1.11-.82-1.22-1.36-.27-2.71-.54-4.05-.84-.56-.13-1.12.23-1.24.79s.23 1.12.79 1.24Zm-107.32-60.39c-.41-.4-1.07-.4-1.47.01-.4.41-.4 1.07.01 1.47.99.98 1.99 1.94 3 2.9.2.19.46.29.71.29.27 0 .55-.11.75-.32.39-.41.38-1.08-.04-1.47-1-.95-1.99-1.9-2.97-2.87Zm123.75 63.29c1.38.19 2.75.37 4.14.53h.13c.52 0 .97-.39 1.03-.92.07-.57-.34-1.09-.91-1.16-1.37-.16-2.74-.34-4.1-.53-.57-.09-1.1.32-1.17.89-.08.57.32 1.1.89 1.17Zm-88.3-34.9c-1.16-.75-2.31-1.5-3.46-2.28-.47-.32-1.12-.19-1.44.28-.32.47-.19 1.12.28 1.44 1.16.77 2.32 1.54 3.49 2.3.17.11.37.17.56.17.34 0 .67-.17.88-.47.31-.48.17-1.12-.31-1.44Zm-10.25-7.01c-.46-.33-1.12-.23-1.45.23s-.23 1.12.23 1.45c1.13.82 2.26 1.63 3.4 2.43.18.13.39.19.59.19.33 0 .65-.15.86-.44.33-.47.21-1.12-.25-1.44-1.13-.79-2.25-1.59-3.37-2.4Zm-13.01-10.22c-.44-.37-1.1-.32-1.46.12-.37.43-.31 1.1.12 1.46 1.06.9 2.13 1.79 3.21 2.67.19.16.43.23.65.23.3 0 .6-.13.8-.38.36-.44.29-1.1-.15-1.46-1.07-.88-2.12-1.76-3.18-2.65Zm210.17 43.61c.11 0 .21-.01.32-.05 1.32-.43 2.65-.87 3.96-1.32.54-.19.83-.77.65-1.32-.19-.54-.77-.83-1.32-.65-1.3.45-2.61.88-3.92 1.31-.55.17-.85.76-.67 1.31.14.44.55.72.99.72Zm-216.38-49.08c-.42-.39-1.08-.35-1.47.07s-.35 1.08.07 1.47c1.03.94 2.06 1.86 3.11 2.79.2.17.44.26.69.26.29 0 .57-.12.78-.35.38-.43.34-1.09-.09-1.46-1.04-.91-2.06-1.83-3.08-2.77Zm12.61 10.7c-.45-.35-1.1-.27-1.46.17-.35.45-.27 1.1.17 1.46 1.1.86 2.2 1.71 3.31 2.55.19.14.41.21.63.21.31 0 .63-.14.83-.41.35-.46.25-1.11-.2-1.46-1.1-.83-2.19-1.67-3.27-2.53Zm101.34 44.25c-1.36-.21-2.73-.44-4.08-.68-.56-.1-1.1.27-1.2.84-.1.57.28 1.1.84 1.2 1.37.24 2.74.47 4.12.69.05 0 .11.01.16.01.5 0 .94-.37 1.02-.88.09-.57-.3-1.1-.86-1.19Zm189.41-61.08c-.98.97-1.96 1.93-2.96 2.88-.41.39-.43 1.06-.03 1.47.21.21.47.32.75.32s.51-.09.71-.29c1.01-.96 2-1.93 2.99-2.91.41-.4.41-1.06 0-1.47-.4-.41-1.06-.41-1.47 0ZM371.69 747.3c1.38.09 2.77.16 4.17.22h.05c.55 0 1.02-.43 1.04-1 .03-.57-.42-1.06-.99-1.08-1.38-.06-2.75-.13-4.13-.22-.57-.02-1.06.4-1.1.97-.03.57.4 1.07.97 1.1Zm-8.32-.67c1.38.14 2.77.27 4.16.38h.09c.53 0 .99-.41 1.04-.96.05-.57-.38-1.08-.95-1.12-1.38-.11-2.75-.23-4.12-.37-.57-.05-1.08.36-1.14.93-.06.57.36 1.08.93 1.14Zm-89.55-31.53c-1.19-.7-2.37-1.42-3.54-2.14-.49-.3-1.13-.15-1.43.34-.3.49-.15 1.13.34 1.43 1.18.73 2.38 1.46 3.57 2.16.17.1.35.15.53.15.35 0 .7-.18.9-.51.29-.49.13-1.13-.37-1.42Zm61.23 24.69c-1.34-.31-2.68-.65-4.02-.99-.55-.14-1.12.19-1.26.75-.14.55.19 1.12.75 1.26 1.35.35 2.7.67 4.06 1 .08.02.16.03.24.03.47 0 .9-.32 1.01-.8.13-.55-.21-1.12-.77-1.25Zm254.86-128.07c.41 0 .79-.24.96-.64.53-1.29 1.06-2.58 1.58-3.88.21-.53-.05-1.14-.58-1.35-.53-.21-1.14.05-1.35.59-.51 1.29-1.03 2.57-1.56 3.84-.22.53.03 1.14.56 1.36.13.05.27.08.4.08h-.01ZM465.06 730.96c-1.28.49-2.57.98-3.87 1.46-.54.19-.82.79-.62 1.33.15.42.55.68.98.68.12 0 .24-.02.35-.06 1.31-.47 2.61-.97 3.91-1.47.53-.21.8-.81.59-1.34s-.81-.8-1.34-.59Zm4.24.47c.13 0 .26-.03.39-.08 1.28-.52 2.56-1.06 3.83-1.61.53-.23.77-.84.54-1.36s-.84-.77-1.36-.54c-1.26.54-2.53 1.08-3.8 1.6-.53.21-.79.82-.57 1.36.17.4.55.65.96.65Zm130.81-151.34c.09.02.17.03.25.03.47 0 .89-.31 1.01-.79.33-1.35.65-2.7.97-4.06.13-.56-.22-1.12-.78-1.24-.55-.13-1.12.22-1.24.78-.31 1.34-.63 2.69-.96 4.02-.14.55.2 1.12.75 1.26Zm-1.8 2.75c-.36 1.33-.73 2.66-1.11 3.98-.16.55.16 1.13.71 1.29.09.03.19.04.29.04.45 0 .87-.29 1-.75.39-1.34.76-2.67 1.12-4.02.15-.55-.18-1.12-.73-1.27-.55-.15-1.12.18-1.27.73Zm-20.84 53c-.49-.29-1.13-.12-1.42.37-.69 1.2-1.4 2.38-2.12 3.56-.3.49-.14 1.13.35 1.43.17.1.35.15.54.15.35 0 .69-.18.89-.5.72-1.19 1.44-2.38 2.14-3.59.29-.49.12-1.13-.37-1.42Zm1.04-1.81c.16.09.33.13.51.13.37 0 .71-.19.91-.53.67-1.22 1.34-2.44 2-3.67.27-.51.08-1.14-.43-1.4-.51-.27-1.14-.08-1.4.43-.65 1.22-1.31 2.43-1.98 3.63-.28.5-.1 1.14.4 1.41Zm-98.29 90.39c-1.24.59-2.49 1.17-3.73 1.74-.52.23-.75.86-.51 1.38.17.38.55.61.95.61.14 0 .29-.03.43-.09 1.26-.57 2.52-1.16 3.77-1.75.51-.25.73-.87.49-1.38-.25-.52-.87-.73-1.38-.49h-.01Zm102.24-97.71c.15.07.31.11.47.11.38 0 .74-.21.93-.57.63-1.24 1.26-2.49 1.86-3.75.25-.51.03-1.14-.48-1.39s-1.14-.03-1.39.48c-.6 1.24-1.22 2.48-1.84 3.71-.26.51-.06 1.14.45 1.4Zm13.57-35.93c-.41 1.32-.84 2.64-1.26 3.95-.18.54.11 1.13.66 1.31.11.03.22.05.33.05.43 0 .84-.27.99-.71.43-1.32.86-2.65 1.28-3.99.17-.55-.13-1.13-.68-1.3-.55-.17-1.13.13-1.3.68h-.01Zm5.97-24.06c-.25 1.36-.53 2.71-.81 4.06-.12.56.24 1.11.8 1.23.07.01.14.02.21.02.48 0 .92-.33 1.02-.83.28-1.36.55-2.73.82-4.1.11-.56-.26-1.11-.83-1.22-.56-.11-1.11.27-1.22.83ZM441.49 738.56c-1.33.35-2.67.68-4.01 1-.56.13-.9.69-.77 1.26.11.47.54.79 1.01.79.08 0 .16 0 .25-.03 1.36-.33 2.71-.67 4.05-1.02.55-.15.89-.71.74-1.27s-.71-.89-1.27-.74Zm-24.3 4.89c-1.36.19-2.73.37-4.1.55-.57.07-.98.59-.9 1.16.07.53.51.91 1.03.91h.13c1.38-.17 2.76-.35 4.14-.55.57-.08.96-.61.88-1.18-.08-.57-.61-.96-1.18-.88Zm186.2-184.87c-.21 1.36-.42 2.73-.65 4.08-.09.57.29 1.1.85 1.2.06.01.12.01.17.01.49 0 .94-.36 1.02-.87.23-1.37.45-2.75.66-4.12.09-.57-.31-1.1-.88-1.18-.56-.09-1.1.31-1.18.88ZM425.35 742.14c-1.36.25-2.71.48-4.08.7-.57.09-.95.63-.86 1.19.08.51.52.88 1.02.88.05 0 .11 0 .17-.01 1.38-.22 2.75-.46 4.12-.71.56-.1.94-.64.84-1.21-.1-.56-.64-.94-1.21-.84Zm8.1-1.63c-1.34.29-2.69.58-4.04.86-.56.11-.93.66-.82 1.22.1.49.53.84 1.02.84.07 0 .13 0 .21-.02 1.36-.27 2.73-.56 4.08-.86.56-.13.92-.68.79-1.24s-.67-.92-1.24-.79Zm16-4.18c-1.32.4-2.64.78-3.97 1.16-.55.15-.88.73-.72 1.28.13.46.55.75 1 .75.09 0 .19-.01.28-.04 1.34-.37 2.68-.77 4.01-1.17.55-.17.86-.74.69-1.3-.17-.55-.75-.86-1.3-.69Zm156.04-198.3c-.03.57.41 1.06.98 1.1h.06c.55 0 1-.43 1.04-.98.08-1.39.14-2.78.19-4.17.02-.57-.43-1.06-1-1.08-.59-.03-1.06.43-1.08 1-.05 1.38-.11 2.76-.19 4.13Zm1.38-13.43c-.57 0-1.04.47-1.04 1.04 0 1.38-.01 2.76-.04 4.14-.01.57.45 1.05 1.02 1.06h.02c.56 0 1.03-.45 1.04-1.02.03-1.39.04-2.78.04-4.18 0-.57-.47-1.04-1.04-1.04Zm-1.99 21.69c-.05.57.37 1.08.94 1.13h.1c.53 0 .98-.41 1.04-.94.13-1.38.25-2.77.35-4.16.04-.57-.39-1.07-.96-1.11-.57-.04-1.07.39-1.11.96-.1 1.38-.21 2.75-.35 4.12Zm-.42 4.11c-.15 1.37-.32 2.74-.5 4.1-.07.57.33 1.09.9 1.16h.13c.51 0 .96-.38 1.03-.9.18-1.38.35-2.76.5-4.14.07-.57-.35-1.08-.92-1.15s-1.08.35-1.15.92Zm-17.89 68.97c.39 0 .77-.22.94-.6.59-1.26 1.16-2.54 1.72-3.81.23-.53 0-1.14-.53-1.37-.52-.23-1.14 0-1.37.53-.55 1.26-1.12 2.53-1.7 3.78-.24.52-.01 1.14.51 1.38.14.07.29.09.43.09Zm-415.08-43.55c-.13-.56-.69-.91-1.25-.77-.56.13-.91.69-.77 1.25.31 1.36.65 2.71.99 4.06.12.47.54.78 1.01.78.09 0 .17-.01.25-.03.55-.14.9-.71.75-1.26-.34-1.34-.66-2.67-.98-4.02Zm-6.7-43.96c.57-.01 1.03-.49 1.02-1.06-.03-1.38-.05-2.75-.05-4.14 0-.57-.47-1.04-1.04-1.04-.57 0-1.04.47-1.04 1.04 0 1.4.03 2.79.06 4.17.01.57.47 1.02 1.04 1.02h.03-.01Zm9.08 60.54c.42 1.33.85 2.65 1.29 3.97.15.43.55.71.98.71.11 0 .22-.02.33-.05.54-.18.84-.77.65-1.32-.44-1.3-.86-2.62-1.28-3.93-.17-.55-.75-.85-1.3-.68-.55.17-.85.75-.68 1.3Zm-4.1-24.65c-.11-.56-.66-.94-1.22-.82-.56.11-.93.65-.82 1.22.27 1.37.54 2.73.84 4.09.11.49.53.82 1.02.82.07 0 .15 0 .22-.02.56-.12.92-.67.8-1.23-.29-1.34-.56-2.7-.82-4.05h-.01Zm-2.61-9.02c-.57.09-.96.62-.87 1.18.21 1.38.44 2.75.67 4.12.09.51.53.86 1.02.86.06 0 .12 0 .18-.01.57-.1.94-.63.85-1.2-.23-1.36-.46-2.71-.67-4.08-.09-.57-.62-.96-1.18-.87Zm-2.05-18.57h.06c.57-.03 1.01-.53.98-1.1-.08-1.37-.15-2.75-.21-4.13-.03-.57-.51-1.03-1.08-1-.57.03-1.02.51-1 1.08.06 1.4.13 2.78.21 4.17.03.55.49.98 1.04.98Zm40.37 115.25c.2.28.52.43.84.43.21 0 .42-.07.61-.19.47-.33.57-.98.23-1.45-.8-1.12-1.6-2.24-2.38-3.37-.33-.47-.98-.59-1.44-.26-.47.33-.59.98-.26 1.44.79 1.14 1.59 2.28 2.41 3.4Zm10.25 13.14c.21.25.5.37.79.37.23 0 .47-.08.67-.24.44-.37.49-1.02.13-1.46-.89-1.06-1.76-2.12-2.63-3.19-.36-.45-1.02-.51-1.46-.15-.45.36-.51 1.02-.15 1.46.88 1.08 1.76 2.15 2.65 3.21Zm-5.25-6.47c.21.26.51.4.82.4.22 0 .45-.07.63-.22.45-.35.53-1.01.18-1.46-.85-1.08-1.68-2.18-2.51-3.28-.34-.45-1-.55-1.46-.21s-.55 1-.21 1.46c.84 1.12 1.68 2.22 2.53 3.31Zm-18.44-27.72c.19.34.54.53.91.53.17 0 .35-.04.51-.13.5-.28.67-.92.39-1.42-.67-1.2-1.34-2.4-1.98-3.61-.27-.51-.9-.69-1.4-.42-.51.27-.69.9-.42 1.4.65 1.22 1.32 2.44 2 3.65Zm-25.96-83.86c-.57.07-.98.58-.91 1.15.16 1.38.33 2.77.52 4.14.07.52.51.9 1.03.9h.14c.57-.07.97-.6.89-1.17-.19-1.36-.35-2.73-.51-4.1-.07-.57-.59-.98-1.15-.91Zm30.18 91.04c.19.32.53.49.89.49.19 0 .37-.05.54-.15.49-.3.64-.94.34-1.43-.71-1.17-1.42-2.35-2.12-3.54-.29-.49-.93-.66-1.42-.37-.49.29-.66.93-.37 1.42.7 1.2 1.42 2.39 2.14 3.57Zm-8.16-14.51c.19.36.55.56.92.56.16 0 .32-.03.47-.11.51-.26.71-.89.45-1.4-.63-1.22-1.24-2.45-1.85-3.69-.25-.51-.88-.73-1.39-.47-.51.25-.73.88-.47 1.39.61 1.25 1.24 2.49 1.86 3.72Zm-22.77-84.8c-.57.05-1 .55-.96 1.12.11 1.39.23 2.77.37 4.16.05.53.5.94 1.04.94h.1c.57-.05.99-.56.94-1.14-.13-1.37-.25-2.74-.36-4.12-.05-.57-.54-1-1.12-.96Zm19.11 77.33c.17.38.55.6.94.6.15 0 .29-.03.44-.1.52-.24.74-.86.5-1.38-.58-1.24-1.15-2.49-1.71-3.75-.23-.53-.85-.76-1.37-.53-.52.23-.76.85-.53 1.37.56 1.27 1.14 2.53 1.72 3.78Zm-3.37-7.59c.17.39.55.63.96.63.13 0 .27-.03.4-.08.53-.22.77-.83.55-1.36-.53-1.26-1.06-2.53-1.56-3.81-.21-.53-.82-.79-1.35-.58-.53.21-.79.82-.58 1.35.51 1.29 1.04 2.57 1.58 3.85Zm-7.54-28.12c-.15-.55-.72-.88-1.28-.73-.55.15-.88.72-.73 1.28.37 1.34.75 2.68 1.14 4.02.13.45.55.75 1 .75.09 0 .19-.01.29-.04.55-.16.86-.74.7-1.29-.39-1.32-.76-2.65-1.13-3.97ZM515.6 703.37c-1.11.82-2.23 1.62-3.35 2.4-.47.33-.58.98-.25 1.45.2.29.52.44.85.44.21 0 .41-.06.59-.19 1.14-.8 2.26-1.61 3.39-2.43.46-.34.56-.99.23-1.45-.34-.46-.99-.57-1.45-.23Zm-6.75 4.75c-1.14.77-2.28 1.53-3.44 2.28-.48.31-.62.96-.31 1.44.2.31.53.47.88.47.19 0 .39-.05.56-.17 1.17-.75 2.32-1.52 3.47-2.3.47-.32.6-.97.28-1.44-.32-.47-.97-.6-1.44-.28Zm48.47-44.6c-.86 1.08-1.74 2.14-2.63 3.2-.37.44-.31 1.1.13 1.46.19.16.43.24.67.24.29 0 .59-.13.79-.37.9-1.07 1.78-2.14 2.65-3.23.36-.45.29-1.1-.16-1.46s-1.1-.29-1.46.16Zm-55.4 49.09c-1.17.73-2.34 1.44-3.52 2.14-.49.29-.65.93-.36 1.42.19.33.54.51.9.51.18 0 .36-.05.53-.15 1.2-.71 2.38-1.44 3.55-2.17.49-.3.63-.94.33-1.43s-.94-.63-1.43-.33Zm26.63-19.47c-1.05.9-2.1 1.78-3.17 2.65-.44.37-.51 1.02-.14 1.46.21.25.5.38.8.38.23 0 .47-.08.66-.23 1.08-.88 2.14-1.78 3.2-2.68.43-.37.49-1.03.11-1.46s-1.03-.49-1.46-.11Zm-6.38 5.24c-1.08.86-2.16 1.7-3.26 2.53-.45.35-.55 1-.2 1.46.21.27.51.41.83.41.22 0 .44-.07.63-.21 1.11-.84 2.2-1.7 3.29-2.56.45-.35.53-1.01.17-1.46-.35-.45-1.01-.53-1.46-.17Zm40.21-41.39c-.82 1.11-1.66 2.2-2.51 3.29-.35.45-.27 1.11.19 1.46.19.15.41.21.63.21.31 0 .61-.14.82-.4.86-1.1 1.7-2.21 2.53-3.33.34-.46.25-1.11-.21-1.46-.46-.34-1.11-.25-1.46.21Zm4.82-6.72c-.78 1.14-1.58 2.26-2.38 3.39-.33.47-.23 1.12.24 1.45.18.13.39.19.6.19.32 0 .64-.15.85-.43.81-1.13 1.61-2.27 2.4-3.42.33-.47.21-1.12-.27-1.44-.47-.33-1.12-.21-1.44.27Zm-32.46 37.39c-1.02.94-2.04 1.86-3.07 2.77-.43.38-.47 1.04-.09 1.46.21.23.49.35.77.35.25 0 .49-.09.69-.26 1.04-.92 2.07-1.85 3.09-2.79.42-.39.45-1.04.06-1.47-.39-.42-1.04-.45-1.47-.06ZM487.4 907.87c0-.55-.22-1.08-.61-1.47l-56.46-56.46 173.35-173.35c.1-.09.19-.21.26-.32.03-.05.05-.1.09-.15.04-.07.08-.13.11-.2s.05-.14.07-.21c.02-.06.04-.12.05-.18.05-.27.05-.55 0-.82-.01-.06-.03-.12-.05-.18-.02-.07-.03-.14-.07-.21-.03-.07-.07-.13-.11-.2-.03-.05-.05-.11-.09-.15-.07-.11-.16-.22-.26-.32l-30.08-30.08c-.07-.21-.2-.39-.4-.52-.06-.04-.13-.05-.19-.07L455.99 525.96l87.02-87.02h.8c1.15 0 2.08-.93 2.08-2.08 0-.29-.07-.57-.17-.84.33-.76.19-1.68-.43-2.3l-17.17-17.17 17.15-16.79c.08-.09.15-.17.21-.27.05-.07.09-.14.13-.21.03-.07.08-.13.11-.2.04-.1.07-.21.1-.32 0-.03.02-.06.02-.09.03-.13.04-.26.04-.39 0-.06 0-.1-.01-.14 0-.09 0-.18-.03-.27-.01-.07-.03-.12-.05-.19s-.03-.14-.06-.21c-.03-.07-.06-.13-.09-.19s-.06-.12-.09-.17c-.05-.07-.1-.13-.16-.2-.03-.04-.05-.08-.09-.11l-84.6-86.39c.95-.99 1.88-1.99 2.79-3.01.76-.86.68-2.17-.17-2.93-.86-.76-2.17-.68-2.93.17-.84.95-1.71 1.88-2.59 2.8l-51.53-52.62c3.07-3.87 5.07-8.63 5.55-13.83.2.03.4.04.6.07h.13c.51 0 .97-.39 1.03-.92.07-.57-.33-1.09-.91-1.16-.25-.03-.49-.05-.75-.08v-.33c0-14.43-11.7-26.13-26.13-26.13s-26.13 11.7-26.13 26.13v.33c-.29.03-.58.06-.87.1-.57.07-.98.59-.91 1.16.07.53.51.92 1.03.92h.13c.24-.03.49-.05.73-.08.54 5.94 3.07 11.3 6.91 15.42L226.3 396.8c-.1.09-.19.2-.26.32-.03.05-.06.11-.09.16-.03.07-.07.13-.11.2-.03.07-.05.14-.07.21-.02.06-.04.11-.05.18-.05.27-.05.55 0 .82.01.06.03.12.05.18.02.07.04.14.07.21.03.07.07.13.11.2.03.05.05.11.09.16.07.11.16.22.26.32l18.65 18.65-16.38 16.38h-.8c-1.15 0-2.08.93-2.08 2.08 0 .29.07.57.17.84-.33.76-.19 1.68.43 2.3l45.87 45.87c-1.82 1.08-3.62 2.18-5.39 3.3-.97.61-1.26 1.9-.65 2.87.39.63 1.07.97 1.76.97.38 0 .76-.11 1.11-.32 2.04-1.29 4.12-2.54 6.21-3.77l38.72 38.72-36.89 36.89L167.9 673.69c-.1.1-.19.21-.26.32-.03.05-.05.1-.09.15-.04.07-.08.13-.11.2s-.05.14-.07.21c-.02.06-.04.12-.05.18-.05.27-.05.55 0 .82.01.06.03.12.05.18.02.07.03.14.07.21.03.07.07.13.11.2.03.05.05.11.09.15.07.11.16.22.26.32l174.4 174.4-32.45 32.45c-2.6-.96-5.2-1.96-7.75-3.01-1.06-.44-2.28.07-2.71 1.12-.44 1.06.07 2.28 1.12 2.71 2.01.84 4.05 1.64 6.1 2.41l-21.82 21.82c-.81.81-.81 2.12 0 2.94l11.2 11.2-11.2 11.2c-.39.39-.61.92-.61 1.47s.22 1.08.61 1.47l98.48 98.48c.41.41.94.61 1.47.61s1.06-.2 1.47-.61l70.71-70.71 7.76 7.76c.41.41.94.61 1.47.61s1.06-.2 1.47-.61c.81-.81.81-2.12 0-2.94l-7.76-7.76 26.93-26.93c.39-.39.61-.92.61-1.47s-.22-1.08-.61-1.47l-11.2-11.2 11.2-11.2c.39-.39.61-.92.61-1.47h-.01Zm-28.29-23.26c-.28-.03-.57 0-.86.11-3.85 1.35-7.79 2.61-11.7 3.73-.78.23-1.32.87-1.46 1.62l-27.44-27.44 9.73-9.73 31.73 31.73Zm-20.87 61.26 3.07 3.07-56.56 56.56-82.87-82.87 28.45-28.45c1.98.51 3.97.99 5.96 1.44.15.03.31.05.46.05.95 0 1.8-.65 2.02-1.62.25-1.12-.45-2.23-1.57-2.49-1.14-.26-2.29-.55-3.44-.83l24.15-24.15 26.4 26.4c.09.09.2.18.31.26.03.02.06.03.09.05.09.05.17.11.27.15l.12.04c.09.03.17.06.27.08.13.03.27.04.41.04.06 0 .11-.01.17-.02l8.22 8.22c.41.41.94.61 1.47.61s1.06-.2 1.47-.61c.32-.32.51-.72.57-1.14.2.07.41.11.64.11h.12c4.15-.23 8.34-.58 12.47-1.05 1.14-.13 1.96-1.16 1.83-2.3s-1.15-1.96-2.3-1.83c-4.05.45-8.17.8-12.24 1.03-.9.05-1.62.66-1.86 1.48l-7.1-7.1 25.46-25.46 54.99 54.99-25.46 25.46-3.07-3.07c-.81-.81-2.12-.81-2.94 0-.81.81-.81 2.12 0 2.94h.03Zm-50.37-59.34v-47.81l23.9 23.9-23.9 23.9Zm.44-53.24c-.13-.13-.28-.23-.44-.31v-19.59l36.58 36.58-9.73 9.73-26.41-26.41Zm-4.59 1.66-25.79 25.79-9.73-9.73 35.53-35.53v19.47Zm0 5.88v45.72l-22.86-22.86 22.86-22.86Zm4.59-32.87c-.13-.13-.28-.23-.44-.31v-22.67h101.58l-62.07 62.07-39.07-39.07ZM200 647.47c.25.38.49.76.75 1.14.2.3.53.46.87.46.2 0 .4-.05.57-.17.47-.32.61-.96.29-1.44-.33-.49-.65-1-.98-1.5l74.93-74.93v102.03h-54.05c-.79-.88-1.58-1.76-2.36-2.66-.37-.43-1.04-.47-1.46-.1-.43.37-.47 1.04-.1 1.46.38.43.77.86 1.15 1.29h-45.2l25.6-25.6Zm71.38-208.49h227.95l-31.95 31.28c-2.75-1.08-5.52-2.13-8.3-3.1-1.09-.37-2.26.19-2.65 1.28-.37 1.08.19 2.26 1.28 2.65 2.14.74 4.29 1.54 6.42 2.35l-30.67 30.03-38.57-38.57c1.4-1.56 2.41-3.46 2.87-5.58 1.1 0 2-.86 2.06-1.96.06-1.12-.78-2.07-1.89-2.17-.76-6.04-5.9-10.71-12.15-10.71s-11.47 4.75-12.17 10.86c-.25-.09-.51-.13-.78-.11-4.15.24-8.34.59-12.47 1.06-1.14.13-1.96 1.16-1.83 2.3.12 1.06 1.02 1.84 2.06 1.84.08 0 .16 0 .23-.01 4.04-.46 8.16-.81 12.24-1.04.25-.01.49-.08.71-.17.45 2.17 1.48 4.13 2.9 5.71l-39.7 39.7L271.35 439Zm114.42-174.2c6.79 0 12.99-2.6 17.63-6.85l51.43 52.52c-.98.94-1.97 1.87-2.98 2.77-.86.76-.94 2.07-.17 2.93.41.46.98.7 1.56.7.49 0 .98-.17 1.38-.52 1.06-.94 2.1-1.92 3.13-2.91l81.1 82.83h-31.11l-68.58-68.58c1.9-1.14 3.78-2.34 5.6-3.61.94-.65 1.18-1.94.53-2.89-.65-.94-1.94-1.18-2.89-.53-2.03 1.4-4.14 2.73-6.27 3.99l-47.21-47.21c-.78-.78-2.16-.78-2.94 0L267.18 396.25h-34.36l136.97-136.97c4.42 3.45 9.99 5.5 16.03 5.5Zm-47.47 66.17c3.47 1.79 7.07 3.4 10.72 4.78.24.09.49.13.73.13.84 0 1.63-.51 1.94-1.34.41-1.08-.13-2.27-1.21-2.68-3.09-1.17-6.13-2.51-9.09-3.99l46.04-46.04 44.92 44.92c-.08.04-.16.09-.25.13-1.02.53-1.4 1.79-.87 2.81.37.71 1.1 1.11 1.84 1.11.33 0 .65-.08.97-.24.46-.24.92-.5 1.37-.75l66.45 66.45H273.04l65.29-65.29Zm167.71 69.44 16.17 16.17-18.64 18.25H267.23l-16.38-16.38 18.04-18.04h237.15Zm63.77 247.92c.17.11.37.17.57.17.33 0 .67-.17.87-.47.12-.18.23-.36.35-.54l25.6 25.6H552c.53-.59 1.06-1.19 1.58-1.79.37-.43.33-1.09-.1-1.46-.43-.37-1.09-.33-1.46.1-.9 1.04-1.82 2.07-2.74 3.09-.01.01-.02.04-.03.05h-46.78c-1.66-2.67-4.61-4.46-7.98-4.46-.49 0-.96.05-1.42.12v-99.81l77.05 77.05c-.19.3-.39.6-.58.9-.31.48-.19 1.12.29 1.44h-.01Zm-76.76 71.96c.94-.52 1.88-1.04 2.82-1.58.5-.28.67-.92.39-1.42-.28-.5-.92-.67-1.42-.39-.59.34-1.2.67-1.79 1v-30.61c.47.07.94.12 1.42.12 5.19 0 9.39-4.2 9.39-9.39 0-.26-.02-.52-.04-.77h41.54l-1.74 1.83c-.4.41-.39 1.07.02 1.47.2.19.46.29.72.29s.54-.11.74-.31c.97-1 1.93-2 2.88-3.02.07-.07.11-.17.16-.25h49.05L493.04 781.39v-61.11ZM480.8 576.4c.41.39.93.59 1.46.59s1.08-.21 1.48-.62l5.16-5.26v99.34c-.96.71-1.78 1.6-2.4 2.61h-74.66c-.49-6.19-3.13-11.76-7.17-15.99l.57-.59c.8-.82.79-2.13-.03-2.94-.82-.8-2.13-.79-2.94.03l-.71.72c-3.86-2.93-8.57-4.8-13.69-5.2v-55.01l26-26h72.16l-5.26 5.37c-.8.82-.79 2.13.03 2.94Zm-92.92 11.82V568.1H408l-20.12 20.12Zm0-24.28v-10.03l45.55-44.61 16.68 16.68-37.96 37.96h-24.28Zm0-15.85v-79.33c1.33-.23 2.6-.66 3.74-1.28l38.87 38.87-42.62 41.73Zm-7.9-80.61c1.15.62 2.41 1.06 3.74 1.28v82.54l-43.78-43.78 40.04-40.04Zm2.69 88.64c.3.3.67.49 1.06.57v7.25h-27.6l-36.3-36.3 17.18-17.18 45.67 45.67h-.01Zm1.06 11.96v23.45l-23.45-23.45h23.45Zm-1.06 28.27c.29.29.65.48 1.06.57v52.18c-5.65.45-10.8 2.69-14.87 6.16l-1.64-1.68c-.8-.82-2.12-.84-2.94-.03-.82.8-.84 2.12-.03 2.94l1.68 1.71c-3.47 4.07-5.71 9.21-6.15 14.86H280.6V571.1l5.16 5.26c.41.41.94.62 1.48.62s1.05-.2 1.46-.59c.82-.8.84-2.12.03-2.94l-5.26-5.37h70.95l28.27 28.27Zm-158.9 80.86c0 .26.09.53.28.73.96 1.01 1.92 2.02 2.89 3.01.21.21.47.31.74.31s.52-.1.73-.29c.41-.4.41-1.06.02-1.47-.74-.75-1.47-1.52-2.2-2.29h50.2v40.04c-.17.09-.32.21-.43.39-.28.5-.11 1.13.39 1.42l.03.02v60.17L174.39 677.22h49.38Zm59.34 100.96c-.69-.67-1.73-.77-2.53-.29V721.2c.35-.01.69-.2.88-.54.27-.5.09-1.14-.42-1.41-.15-.08-.31-.17-.46-.25v-41.79h79.18c.42 5.31 2.42 10.17 5.54 14.11l-6.63 6.77c-.8.82-.79 2.13.03 2.94.4.39.93.59 1.46.59s1.08-.21 1.48-.62l6.49-6.63c4.18 3.83 9.6 6.33 15.6 6.8v44.57c-1.21-.01-2.43-.03-3.63-.06-.59-.01-1.05.44-1.06 1.02-.01.57.44 1.05 1.01 1.06 1.22.03 2.45.05 3.68.06v32.99H283.39c.53-.82.43-1.92-.28-2.62Zm104.76-30.52c.15.09.31.15.49.15h.01c1.4-.01 2.78-.05 4.17-.09.57-.02 1.02-.49 1.01-1.07-.02-.57-.5-1.03-1.07-1.01-1.37.04-2.75.07-4.13.09-.18 0-.34.06-.49.14v-44.71c5.46-.43 10.46-2.53 14.46-5.81l5.52 5.63c.41.41.94.62 1.48.62s1.05-.2 1.46-.59c.82-.8.84-2.12.03-2.94l-5.49-5.61c3.67-4.13 6.05-9.43 6.51-15.27h73.28c-.02.25-.04.51-.04.77 0 3.1 1.5 5.83 3.81 7.55v35.6c-.3-.39-.84-.54-1.29-.3-1.22.63-2.44 1.26-3.67 1.88-.51.25-.72.88-.47 1.4.18.37.55.57.93.57.15 0 .31-.03.46-.11 1.24-.62 2.48-1.25 3.71-1.89.13-.07.24-.17.33-.27v55.49c-.79-.48-1.84-.39-2.53.29-.72.71-.82 1.81-.28 2.62h-98.21v-33.13Zm100.2-183.74h-70.05l35.02-35.02 35.02 35.02Zm5.47-81.4c-.05-.04-.1-.08-.16-.11-3.64-2-7.39-3.93-11.14-5.74-1.04-.49-2.28-.06-2.77.98-.49 1.04-.06 2.28.98 2.77 3.38 1.62 6.75 3.36 10.05 5.16l-37.44 37.44-16.65-16.65 31.96-31.3c.28.11.57.22.86.34.26.11.53.16.79.16.82 0 1.59-.48 1.92-1.28.33-.8.12-1.68-.45-2.26l33.78-33.08h31.87l-43.58 43.58Zm46.9-47.75h-30.95l15.64-15.31 15.31 15.31Zm-28.55-34.42h26.81l-13.55 13.26-13.26-13.26Zm-279.11 0h30.2l-15.1 15.1-15.1-15.1Zm15.1 20.98 13.44 13.44h-26.88l13.44-13.44Zm31.05 65.42c.2-.11.4-.23.61-.35 1-.55 1.36-1.82.81-2.83-.55-1-1.82-1.36-2.83-.81-.55.3-1.08.63-1.63.94l-44.77-44.77h34.36l33.42 33.42c-3.45 1.46-6.91 3.01-10.29 4.65-1.04.5-1.46 1.74-.96 2.77.36.74 1.1 1.17 1.87 1.17.3 0 .61-.07.9-.21 3.67-1.78 7.43-3.47 11.18-5.03.15-.07.29-.15.42-.24l32.02 32.02-17.18 17.18-37.93-37.93Zm71.29 77.17h-66.73l33.36-33.36 33.36 33.36Zm-68.11 221.01h101.58v24.64l-38.47 38.47-63.11-63.11Zm7.07 125.03 21.72-21.72c.44.15.88.33 1.32.48.23.08.45.11.68.11.86 0 1.66-.53 1.96-1.4.31-.9-.03-1.86-.78-2.38l31.14-31.14 9.73 9.73-25.89 25.89c-1.26-.34-2.53-.67-3.78-1.03-1.1-.31-2.25.32-2.57 1.42-.31 1.1.32 2.25 1.42 2.57.51.15 1.03.27 1.54.41l-26.77 26.77-9.73-9.73Zm9.73 15.62 25.65 25.65c-.33.09-.65.26-.92.52l-8.81 8.81c-.07.07-.13.15-.18.23l-25.48-25.48 9.73-9.73Zm183.44 7.64-97.64 97.63-67.17-67.17c.07-.06.15-.11.22-.18l8.81-8.81c.26-.26.43-.58.52-.92l56.14 56.14c.39.39.92.61 1.47.61s1.08-.22 1.47-.61l58.03-58.03 2.8 2.8c.41.41.94.61 1.47.61s1.06-.2 1.47-.61c.81-.81.81-2.12 0-2.94l-2.8-2.8 25.46-25.46 9.73 9.73Zm-9.73-15.6-25.15-25.15c.07-.01.13 0 .2-.03 3.99-1.15 8-2.43 11.92-3.8.92-.32 1.46-1.22 1.38-2.14l21.38 21.38-9.73 9.73Zm-153.29 104.63c-.81-.81-2.12-.81-2.94 0-.81.81-.81 2.12 0 2.94l8.81 8.81c.41.41.94.61 1.47.61s1.06-.2 1.47-.61c.81-.81.81-2.12 0-2.94l-8.81-8.81Zm17.62 17.62c-.81-.81-2.12-.81-2.94 0-.81.81-.81 2.12 0 2.94l8.81 8.81c.41.41.94.61 1.47.61s1.06-.2 1.47-.61c.81-.81.81-2.12 0-2.94l-8.81-8.81Zm17.62 17.62c-.81-.81-2.12-.81-2.94 0-.81.81-.81 2.12 0 2.94l8.81 8.81c.41.41.94.61 1.47.61s1.06-.2 1.47-.61c.81-.81.81-2.12 0-2.94l-8.81-8.81Zm-65.4-65.4 2.16-2.16c.81-.81.81-2.12 0-2.94-.81-.81-2.12-.81-2.94 0l-3.63 3.63c-.81.81-.81 2.12 0 2.94l5.18 5.18c.41.41.94.61 1.47.61s1.06-.2 1.47-.61c.81-.81.81-2.12 0-2.94l-3.71-3.71Zm12.52 12.53c-.81-.81-2.12-.81-2.94 0-.81.81-.81 2.12 0 2.94l8.81 8.81c.41.41.94.61 1.47.61s1.06-.2 1.47-.61c.81-.81.81-2.12 0-2.94l-8.81-8.81Zm96.94 74.98c.81-.81.81-2.12 0-2.94-.81-.81-2.12-.81-2.94 0l-2.19 2.19c-2.42-1.78-5.39-2.85-8.62-2.85s-6.37 1.12-8.81 2.99l-3.87-3.87c-.81-.81-2.12-.81-2.94 0-.81.81-.81 2.12 0 2.94l3.89 3.89c-1.78 2.42-2.85 5.39-2.85 8.62 0 8.05 6.53 14.57 14.57 14.57s14.57-6.53 14.57-14.57c0-3.32-1.12-6.37-2.99-8.81l2.16-2.16h.01Zm-98.48-98.48 8.81-8.81c.81-.81.81-2.12 0-2.94-.81-.81-2.12-.81-2.94 0l-8.81 8.81c-.81.81-.81 2.12 0 2.94.41.41.94.61 1.47.61s1.06-.2 1.47-.61Zm166.04 25.04-8.81 8.81c-.81.81-.81 2.12 0 2.94.41.41.94.61 1.47.61s1.06-.2 1.47-.61l8.81-8.81c.81-.81.81-2.12 0-2.94-.81-.81-2.12-.81-2.94 0Zm-124.91-72.04-8.81 8.81c-.81.81-.81 2.12 0 2.94.41.41.94.61 1.47.61s1.06-.2 1.47-.61l8.81-8.81c.81-.81.81-2.12 0-2.94-.81-.81-2.12-.81-2.94 0Zm17.62-17.62-8.81 8.81c-.81.81-.81 2.12 0 2.94.41.41.94.61 1.47.61s1.06-.2 1.47-.61l8.81-8.81c.81-.81.81-2.12 0-2.94-.81-.81-2.12-.81-2.94 0Zm64.62 8.8c-.81-.81-2.12-.81-2.94 0-.81.81-.81 2.12 0 2.94l8.81 8.81c.41.41.94.61 1.47.61s1.06-.2 1.47-.61c.81-.81.81-2.12 0-2.94l-8.81-8.81Zm62.24 62.68c-.09-.37-.27-.71-.55-1l-8.81-8.81c-.81-.81-2.12-.81-2.94 0-.81.81-.81 2.12 0 2.94l8.81 8.81.08.08-7.35 7.35c-.81.81-.81 2.12 0 2.94.41.41.94.61 1.47.61s1.06-.2 1.47-.61l8.81-8.81c.81-.81.81-2.12 0-2.94-.28-.28-.63-.47-1-.55Zm-79.86-80.31c-.81-.81-2.12-.81-2.94 0-.81.81-.81 2.12 0 2.94l8.81 8.81c.41.41.94.61 1.47.61s1.06-.2 1.47-.61c.81-.81.81-2.12 0-2.94l-8.81-8.81Zm42.67 116.11-8.81 8.81c-.81.81-.81 2.12 0 2.94.41.41.94.61 1.47.61s1.06-.2 1.47-.61l8.81-8.81c.81-.81.81-2.12 0-2.94-.81-.81-2.12-.81-2.94 0Zm-17.62 17.62-8.81 8.81c-.81.81-.81 2.12 0 2.94.41.41.94.61 1.47.61s1.06-.2 1.47-.61l8.81-8.81c.81-.81.81-2.12 0-2.94-.81-.81-2.12-.81-2.94 0Zm-17.62 17.62-8.81 8.81c-.81.81-.81 2.12 0 2.94.41.41.94.61 1.47.61s1.06-.2 1.47-.61l8.81-8.81c.81-.81.81-2.12 0-2.94-.81-.81-2.12-.81-2.94 0ZM295.64 195.73c5.19 0 9.39-4.2 9.39-9.39 0-1.64-.43-3.19-1.17-4.54.44-.91.17-2.02-.68-2.61-.54-.37-1.2-.45-1.79-.27-1.59-1.24-3.58-1.98-5.75-1.98-5.19 0-9.39 4.2-9.39 9.39s4.21 9.39 9.39 9.39Zm-98.22 387.4c0-3.56-1.98-6.66-4.9-8.25.47-.88.93-1.77 1.41-2.65.55-1 .19-2.26-.82-2.82-1-.55-2.27-.19-2.82.82-.64 1.16-1.26 2.35-1.88 3.53-.13 0-.25-.02-.37-.02-5.19 0-9.39 4.21-9.39 9.39s4.2 9.39 9.39 9.39 9.39-4.2 9.39-9.39Zm385.96 198.55c1.2-2.28 2.38-4.59 3.5-6.91.5-1.04.07-2.28-.97-2.77-1.04-.5-2.28-.07-2.77.97-1.02 2.12-2.1 4.24-3.19 6.33-1.95-.98-4.15-1.54-6.48-1.54-8.05 0-14.57 6.53-14.57 14.57 0 4.81 2.34 9.06 5.93 11.72-.15.21-.29.43-.43.63-.67.94-.45 2.23.49 2.9.37.26.79.39 1.2.39.65 0 1.29-.3 1.7-.88.25-.35.49-.71.73-1.07 1.55.56 3.21.88 4.95.88 8.05 0 14.57-6.53 14.57-14.57 0-4.22-1.8-8-4.66-10.66ZM138.63 463.05c-2.69 0-5.29.41-7.74 1.17 10.65 3.3 18.38 13.23 18.38 24.96s-7.74 21.66-18.38 24.96c2.45.75 5.04 1.17 7.74 1.17 14.43 0 26.13-11.7 26.13-26.13s-11.7-26.13-26.13-26.13Zm479.1 18.69c0-11.74 7.74-21.66 18.38-24.96-2.45-.75-5.04-1.17-7.74-1.17-14.43 0-26.13 11.7-26.13 26.13s11.7 26.13 26.13 26.13c2.69 0 5.29-.41 7.74-1.17-10.65-3.3-18.38-13.23-18.38-24.96ZM472.09 582.35l-8.72 8.91c-.8.82-.79 2.13.03 2.94.41.39.93.59 1.46.59s1.08-.21 1.48-.62l8.72-8.9c.8-.82.79-2.14-.03-2.94-.82-.8-2.14-.79-2.94.03ZM342.75 719.4c.54 0 1.08-.21 1.48-.62l8.72-8.91c.8-.82.79-2.13-.03-2.94-.82-.8-2.13-.79-2.94.03l-8.72 8.91c-.8.82-.79 2.13.03 2.94.4.39.93.59 1.46.59Zm94.45-101.46-8.72 8.91c-.8.82-.79 2.13.03 2.94.4.39.93.59 1.46.59s1.08-.21 1.48-.62l8.72-8.91c.8-.82.79-2.13-.03-2.94-.82-.8-2.13-.79-2.94.03Zm-17.44 17.8-8.72 8.91c-.8.82-.79 2.13.03 2.94.4.39.93.59 1.46.59s1.08-.21 1.48-.62l8.72-8.91c.8-.82.79-2.13-.03-2.94-.82-.8-2.13-.79-2.94.03Zm-94.45 101.44c.54 0 1.08-.21 1.48-.62l8.72-8.91c.8-.82.79-2.13-.03-2.94-.82-.8-2.13-.79-2.94.03l-8.72 8.91c-.8.82-.79 2.13.03 2.94.4.39.93.59 1.46.59Zm129.34-137.07-8.72 8.91c-.8.82-.79 2.13.03 2.94.4.39.93.59 1.46.59s1.08-.21 1.48-.62l8.72-8.91c.8-.82.79-2.13-.03-2.94-.82-.8-2.13-.79-2.94.03ZM307.87 754.97c.54 0 1.08-.21 1.48-.62l8.72-8.91c.8-.82.79-2.13-.03-2.94-.82-.8-2.13-.79-2.94.03l-8.72 8.91c-.8.82-.79 2.13.03 2.94.4.39.93.59 1.46.59Zm-18.9 17.21c.4.39.93.59 1.46.59s1.08-.21 1.48-.62l8.72-8.91c.8-.82.79-2.13-.03-2.94-.82-.8-2.13-.79-2.94.03l-8.72 8.91c-.8.82-.79 2.13.03 2.94Zm182.94-11.85c-.8-.82-2.12-.84-2.94-.03-.82.8-.84 2.12-.03 2.94l8.72 8.91c.41.41.94.62 1.48.62s1.05-.2 1.46-.59c.82-.8.84-2.12.03-2.94l-8.72-8.91Zm-26.17-26.7-8.72-8.91c-.8-.82-2.12-.84-2.94-.03-.82.8-.84 2.12-.03 2.94l8.72 8.91c.41.41.94.62 1.48.62s1.05-.2 1.46-.59c.82-.8.84-2.12.03-2.94Zm8.72 8.91c-.8-.82-2.12-.84-2.94-.03-.82.8-.84 2.12-.03 2.94l8.72 8.91c.41.41.94.62 1.48.62s1.05-.2 1.46-.59c.82-.8.84-2.12.03-2.94l-8.72-8.91ZM303.23 594.12c.41.41.94.62 1.48.62s1.05-.2 1.46-.59c.82-.8.84-2.12.03-2.94l-8.72-8.91c-.8-.82-2.12-.84-2.94-.03s-.84 2.12-.03 2.94l8.72 8.9Zm52.33 53.42c.41.41.94.62 1.48.62s1.05-.2 1.46-.59c.82-.8.84-2.12.03-2.94l-8.72-8.91c-.8-.82-2.12-.84-2.94-.03-.82.8-.84 2.12-.03 2.94l8.72 8.91Zm72.74 68.32-8.72-8.91c-.8-.82-2.12-.84-2.94-.03-.82.8-.84 2.12-.03 2.94l8.72 8.91c.41.41.94.62 1.48.62s1.05-.2 1.46-.59c.82-.8.84-2.12.03-2.94ZM320.68 611.95c.41.41.94.62 1.48.62s1.05-.2 1.46-.59c.82-.8.84-2.12.03-2.94l-8.72-8.91c-.8-.82-2.12-.84-2.94-.03-.82.8-.84 2.12-.03 2.94l8.72 8.91Zm17.44 17.8c.41.41.94.62 1.48.62s1.05-.2 1.46-.59c.82-.8.84-2.12.03-2.94l-8.72-8.91c-.8-.82-2.12-.84-2.94-.03-.82.8-.84 2.12-.03 2.94l8.72 8.91Z" class="cls-1"/>
</svg>
